<svg version="1.1" id="Layer_1" xmlns="http://www.w3.org/2000/svg" xmlns:xlink="http://www.w3.org/1999/xlink" x="0px" y="0px" viewBox="0 0 500 500" style="width: 144px;" xml:space="preserve" data-imageid="quality-check-8" imageName="Quality Check" class="illustrations_image">
<style type="text/css">
	.st0_quality-check-8{fill:#68E1FD;}
	.st1_quality-check-8{fill:#093F68;}
	.st2_quality-check-8{fill:#FFC9B0;}
	.st3_quality-check-8{fill:#725858;}
	.st4_quality-check-8{fill:#FFFFFF;}
	.st5_quality-check-8{fill:#F56132;}
	.st6_quality-check-8{fill:#FFBC0E;}
	.st7_quality-check-8{fill:#DFEAEF;}
</style>
<g id="character_quality-check-8">
	<path class="st0_quality-check-8 targetColor" d="M430,307.6l-40,4.2l-8.6,40.8c0,0-20.1-25.2-27.5-37c-6.1-9.8-15.9-19.1-31.9-19.1h-63.4&#10;&#9;&#9;c-20.4,0-37,16.6-37,37v112.7H349v-58.6c0,0,22.4,30.6,42.5,26.6C435.3,408,432.3,330,430,307.6z" style="fill: rgb(145, 102, 0);"/>
	<path class="st1_quality-check-8" d="M349,448.3H221.6c-1.2,0-2.1-0.9-2.1-2.1V333.5c0-21.6,17.5-39.1,39.1-39.1H322c14,0,25.3,6.8,33.6,20.1&#10;&#9;&#9;c5.6,9,18.8,26,24.6,33.3l7.7-36.4c0.2-0.9,0.9-1.6,1.8-1.6l40-4.2c1.1-0.1,2.2,0.7,2.3,1.9c0.6,5.4,3.1,33.5-2,60&#10;&#9;&#9;c-5.7,29.7-18.6,46.1-38.3,48.9c-16.2,3.2-33.3-14-40.7-22.8v52.7C351,447.3,350.1,448.2,349,448.3z M223.7,444.1h123.2v-56.6&#10;&#9;&#9;c0-1.2,0.9-2.1,2.1-2.1c0.7,0,1.3,0.3,1.7,0.9c0.2,0.3,21.8,29.5,40.4,25.8c43.3-6.1,38.2-87.6,37-102.2l-36.4,3.8l-8.3,39.2&#10;&#9;&#9;c-0.2,1.1-1.3,1.9-2.5,1.6c-0.5-0.1-0.9-0.4-1.2-0.7c-0.8-1-20.3-25.4-27.6-37.2c-7.5-12-17.6-18.1-30-18.1h-63.4&#10;&#9;&#9;c-19.3,0-34.9,15.7-34.9,34.9L223.7,444.1z"/>
	<path class="st2_quality-check-8" d="M278.1,282.8h27.4l0,0v21.8c0,3.1-2.5,5.6-5.6,5.6h-16.3c-3.1,0-5.6-2.5-5.6-5.6V282.8L278.1,282.8z"/>
	<path class="st1_quality-check-8" d="M293.8,312.3h-4.1c-7.6,0-13.7-6.1-13.7-13.7v-15.8c0-1.2,0.9-2.1,2.1-2.1h27.4c1.2,0,2.1,0.9,2.1,2.1v15.8&#10;&#9;&#9;C307.5,306.1,301.4,312.3,293.8,312.3z M280.2,284.9v13.7c0,5.3,4.3,9.5,9.5,9.5h4.1c5.3,0,9.5-4.3,9.5-9.5v-13.7H280.2z"/>
	<path class="st3_quality-check-8" d="M195.4,211.7c-1.3,0-7.2-33-7.9-36.2c-3.4-15.3-8.7-31.6-5.6-47.2c1.1-5.9,2.7-11.8,6.1-16.7s9.1-8.6,15.1-8.1&#10;&#9;&#9;c-1.3-0.1,7.5-16.5,8.7-17.8c4.3-4.7,10.2-9.1,15.2-13.1c12-9.6,27.2-15.1,42.3-17.4c24.8-3.5,50.2-0.1,73.2,10.1&#10;&#9;&#9;c17.2,7.5,33.2,18.7,43.7,34.2c21.6,31.6,9,74.9,2.8,109.6l-17-3L195.4,211.7z"/>
	<path class="st1_quality-check-8" d="M195.2,213.8c-2.1,0-2.8-1.4-8.6-31.9c-0.6-3-1-5.2-1.1-5.9c-0.6-2.5-1.1-4.9-1.8-7.4&#10;&#9;&#9;c-3.2-13.3-6.5-27.1-3.9-40.6c1.2-6,2.8-12.2,6.5-17.5c3.8-5.4,9.5-8.8,15.1-9c1.8-5.7,8.7-17,8.8-17.1c4-4.1,8.3-7.9,12.9-11.3&#10;&#9;&#9;l2.6-2.1c11.5-9.1,26.4-15.3,43.3-17.8c25.2-3.6,51-0.1,74.3,10.2c19.4,8.4,34.8,20.5,44.6,35c19.2,28.2,12.1,64.9,5.8,97.3&#10;&#9;&#9;c-0.9,4.8-1.8,9.4-2.6,13.9c-0.2,1.1-1.3,1.9-2.4,1.7c0,0,0,0,0,0l-16.8-2.9l-176.4,5.5L195.2,213.8L195.2,213.8z M195.4,211.7&#10;&#9;&#9;L195.4,211.7z M202.1,105.6c-4.5,0-9.3,2.8-12.4,7.2c-3.3,4.6-4.7,10.4-5.8,15.9c-2.5,12.6,0.8,25.9,3.9,38.8&#10;&#9;&#9;c0.6,2.5,1.2,5,1.8,7.5c0.2,0.7,0.6,3,1.2,6.1c1.3,6.8,4.6,24,6,28.4l175.2-5.5h0.4l14.9,2.6c0.7-3.9,1.5-7.9,2.3-12&#10;&#9;&#9;c6.2-31.6,13.2-67.3-5.1-94.1c-9.4-13.8-24.2-25.4-42.9-33.5c-22.8-9.9-48.4-13.4-72-9.9c-16.1,2.4-30.4,8.3-41.3,16.9l-2.6,2.1&#10;&#9;&#9;c-4.4,3.3-8.6,6.9-12.4,10.8c-1.1,1.4-7.3,13.1-8.2,16c0,0.2,0,0.4,0,0.6c-0.1,1.1-1.1,2-2.2,1.9l0,0&#10;&#9;&#9;C202.6,105.6,202.4,105.6,202.1,105.6L202.1,105.6z"/>
	<ellipse class="st2_quality-check-8" cx="213.5" cy="211.7" rx="26.6" ry="22.9"/>
	<path class="st1_quality-check-8" d="M213.5,236.7c-15.8,0-28.7-11.2-28.7-25s12.9-25,28.7-25s28.7,11.2,28.7,25S229.4,236.7,213.5,236.7z&#10;&#9;&#9; M213.5,190.9c-13.5,0-24.5,9.3-24.5,20.8s11,20.8,24.5,20.8s24.5-9.3,24.5-20.8S227.1,190.9,213.5,190.9L213.5,190.9z"/>
	<ellipse class="st2_quality-check-8" cx="368.6" cy="211.7" rx="26.6" ry="22.9"/>
	<path class="st1_quality-check-8" d="M368.6,236.7c-15.8,0-28.7-11.2-28.7-25s12.9-25,28.7-25s28.7,11.2,28.7,25S384.4,236.7,368.6,236.7z&#10;&#9;&#9; M368.6,190.9c-13.5,0-24.5,9.4-24.5,20.8s11,20.8,24.5,20.8s24.5-9.3,24.5-20.8S382.1,190.9,368.6,190.9L368.6,190.9z"/>
	<path class="st2_quality-check-8" d="M291.8,286.4c-41.8,0-76.6-32-80-73.6c-1.4-17.3-4.9-33.6,0.7-50.6c1.8-5.3,4.3-10.5,8.5-14.1s10.6-5,15.5-2.3&#10;&#9;&#9;c2.8-11.1,14.4-18.2,25.8-19.5c11.4-1.3,22.7,2,33.7,5.3c20.4,6.1,40.2,14,59.3,23.6c22.6,11.3,16.7,29.8,16.7,51.1&#10;&#9;&#9;C372,250.5,336.1,286.4,291.8,286.4L291.8,286.4z"/>
	<path class="st1_quality-check-8" d="M291.8,288.5L291.8,288.5c-42.8,0-78.5-32.9-82-75.6c-0.3-3.3-0.6-6.6-1-9.8c-1.5-14.1-2.9-27.5,1.8-41.6&#10;&#9;&#9;c2.3-7,5.2-11.7,9.2-15c4.5-3.8,10.6-5.1,15.5-3.5c4.1-11.3,16.1-17.6,26.8-18.8c12-1.4,24,2.2,34.6,5.3&#10;&#9;&#9;c20.5,6.2,40.5,14.1,59.6,23.7c19.8,9.9,19,25.5,18.2,42c-0.2,3.6-0.4,7.2-0.4,11C374.1,251.6,337.2,288.4,291.8,288.5z&#10;&#9;&#9; M230.9,146.5c-3.1,0.1-6.1,1.2-8.5,3.2c-3.3,2.8-5.8,6.9-7.9,13.1c-4.4,13.3-3,26.2-1.6,39.9c0.4,3.3,0.7,6.6,1,9.9&#10;&#9;&#9;c1.1,13.1,5.5,25.8,12.7,36.8c14.6,21.7,39,34.8,65.1,34.9c43.1,0,78.1-35,78.1-78.1c0-3.8,0.2-7.6,0.4-11.2&#10;&#9;&#9;c0.8-16.4,1.5-29.4-15.9-38.1c-19-9.5-38.7-17.3-59-23.4c-10.2-3-21.7-6.5-32.9-5.2c-9.6,1.1-21.2,7.2-23.9,18&#10;&#9;&#9;c-0.2,0.6-0.6,1.1-1.2,1.4c-0.6,0.3-1.3,0.2-1.8-0.1C234.1,146.9,232.5,146.5,230.9,146.5L230.9,146.5z"/>
	
		<ellipse transform="matrix(0.1602 -0.9871 0.9871 0.1602 21.8528 414.7049)" class="st1_quality-check-8" cx="254.6" cy="194.5" rx="7.4" ry="7.4"/>
	<circle class="st1_quality-check-8" cx="331.2" cy="194.5" r="7.4"/>
	<path class="st4_quality-check-8" d="M321,230.4c-0.3,16.2-13.6,29-29.8,28.7c-15.7-0.3-28.4-13-28.7-28.7H321z"/>
	<path class="st1_quality-check-8" d="M291.8,261.7c-17.3,0-31.3-14-31.4-31.4c0-1.2,0.9-2.1,2.1-2.1H321c1.1,0,2.1,0.9,2.1,2.1c0,0,0,0,0,0&#10;&#9;&#9;C323.1,247.7,309.1,261.7,291.8,261.7z M264.7,232.4c1.2,15,14.3,26.1,29.2,24.9c13.3-1.1,23.9-11.6,24.9-24.9H264.7z"/>
	<path class="st1_quality-check-8" d="M291.4,221.6c-2.4,0-4.8-0.2-7.2-0.6c-1.1-0.2-1.9-1.3-1.7-2.4c0.2-1.1,1.3-1.9,2.4-1.7c0,0,0,0,0,0&#10;&#9;&#9;c0.1,0,6.7,1.1,11.2,0.1c0.6-1.9-2.2-10.1-6.2-17.9c-0.5-1-0.1-2.3,0.9-2.8c1-0.5,2.3-0.1,2.8,0.9c2,3.9,8.4,16.9,6.3,21.6&#10;&#9;&#9;c-0.5,1.1-1.4,1.9-2.5,2.2C295.4,221.4,293.4,221.6,291.4,221.6z"/>
	<path class="st1_quality-check-8" d="M234.5,171.8c-2.3,0-4.2-1.8-4.2-4.2c0-2.2,1.6-4,3.8-4.2l35.2-3.7c2.3-0.2,4.4,1.4,4.6,3.7s-1.4,4.4-3.7,4.6&#10;&#9;&#9;l-35.2,3.7C234.8,171.8,234.6,171.8,234.5,171.8z"/>
	<path class="st1_quality-check-8" d="M355.4,175.1c-0.3,0-0.5,0-0.8-0.1l-34.8-6.6c-2.3-0.4-3.8-2.6-3.3-4.9c0.4-2.3,2.6-3.8,4.9-3.3l0,0l34.8,6.6&#10;&#9;&#9;c2.3,0.4,3.8,2.6,3.3,4.9C359.2,173.6,357.4,175.1,355.4,175.1L355.4,175.1z"/>
	<path class="st5_quality-check-8" d="M285.1,313.2h14.6c1.6,0,2.8,1.3,2.8,2.8v10.3c0,1.6-1.3,2.8-2.8,2.8h-14.6c-1.6,0-2.8-1.3-2.8-2.8V316&#10;&#9;&#9;C282.3,314.4,283.6,313.2,285.1,313.2z"/>
	<path class="st1_quality-check-8" d="M296.7,331.2h-8.5c-4.4,0-8-3.6-8-8V319c0-4.4,3.6-8,8-8h8.5c4.4,0,8,3.6,8,8v4.2&#10;&#9;&#9;C304.7,327.6,301.1,331.2,296.7,331.2z M288.2,315.2c-2.1,0-3.8,1.7-3.8,3.8v4.2c0,2.1,1.7,3.8,3.8,3.8h8.5c2.1,0,3.8-1.7,3.8-3.8&#10;&#9;&#9;V319c0-2.1-1.7-3.8-3.8-3.8H288.2z"/>
	<polygon class="st5_quality-check-8" points="286.6,329.1 273.8,401.7 292.4,426.1 306.4,400.5 298.3,329.1 &#9;"/>
	<path class="st1_quality-check-8" d="M292.4,428.2c-0.7,0-1.3-0.3-1.7-0.8L272.2,403c-0.4-0.5-0.5-1.1-0.4-1.6l12.8-72.5c0.2-1,1-1.7,2.1-1.7h11.6&#10;&#9;&#9;c1.1,0,2,0.8,2.1,1.9l8.1,71.4c0,0.4,0,0.9-0.2,1.2l-14,25.6c-0.3,0.6-1,1-1.7,1.1L292.4,428.2z M276,401.2l16.1,21.1l12.1-22.2&#10;&#9;&#9;l-7.9-68.8h-8L276,401.2z"/>
	<path class="st2_quality-check-8" d="M412.5,282.9v-24.3c0.2-5.7-4.3-10.4-9.9-10.6c-5.7-0.2-10.4,4.3-10.6,9.9c0,0.2,0,0.4,0,0.6v30.7h0.1&#10;&#9;&#9;c-2.3,3.8-3.7,9.8-3.7,19.3c0,25.8,12,30.2,24.3,30.2s27.6-9.6,29.1-16.9C444.5,308.7,423.9,284,412.5,282.9z"/>
	<path class="st1_quality-check-8" d="M412.7,340.9c-11.3,0-26.4-3.4-26.4-32.3c0-8.8,1.2-15.3,3.6-19.7v-30.3c-0.2-6.8,5.2-12.5,12-12.7&#10;&#9;&#9;s12.5,5.2,12.7,12c0,0.2,0,0.5,0,0.7v22.6c6.9,1.8,15.2,9.5,20.6,16.8c3.2,4.3,10.5,15.4,8.7,24.4&#10;&#9;&#9;C442.1,331,425.5,340.9,412.7,340.9z M394.1,288.9c0.1,0.5,0.1,1.1-0.2,1.6c-2.3,3.7-3.4,9.6-3.4,18.2c0,24.8,11.2,28.1,22.2,28.1&#10;&#9;&#9;c11.3,0,25.8-9.1,27-15.2c1-5-2-13-7.9-21c-6.4-8.6-14.4-15-19.5-15.5c-1.1-0.1-1.9-1-1.9-2.1v-24.4c0.2-4.5-3.4-8.3-7.9-8.4&#10;&#9;&#9;c-4.5-0.2-8.3,3.4-8.4,7.9c0,0.2,0,0.4,0,0.6L394.1,288.9z"/>
	<path class="st2_quality-check-8" d="M400.6,277.4h39.1c1.6,0,2.8,1.3,2.8,2.8v6.2c0,1.6-1.3,2.8-2.8,2.8h-39.1c-1.6,0-2.8-1.3-2.8-2.8v-6.2&#10;&#9;&#9;C397.8,278.7,399.1,277.4,400.6,277.4z"/>
	<path class="st1_quality-check-8" d="M436.6,291.4h-32.9c-4.4,0-8-3.6-8-8s3.6-8,8-8h32.9c4.4,0,8,3.6,8,8S441,291.4,436.6,291.4z M403.7,279.5&#10;&#9;&#9;c-2.1,0-3.9,1.7-3.9,3.9s1.7,3.9,3.9,3.9h32.9c2.1,0,3.9-1.7,3.9-3.9s-1.7-3.9-3.9-3.9l0,0H403.7z"/>
	<path class="st2_quality-check-8" d="M400.6,289.3h39.1c1.6,0,2.8,1.3,2.8,2.8v6.2c0,1.6-1.3,2.8-2.8,2.8h-39.1c-1.6,0-2.8-1.3-2.8-2.8v-6.2&#10;&#9;&#9;C397.8,290.6,399.1,289.3,400.6,289.3z"/>
	<path class="st1_quality-check-8" d="M436.6,303.3h-32.9c-4.4,0-8-3.6-8-8s3.6-8,8-8h32.9c4.4,0,8,3.6,8,8S441,303.3,436.6,303.3z M403.7,291.4&#10;&#9;&#9;c-2.1,0.1-3.8,1.9-3.7,4.1c0.1,2,1.7,3.6,3.7,3.7h32.9c2.1-0.1,3.8-1.9,3.7-4.1c-0.1-2-1.7-3.6-3.7-3.7H403.7z"/>
	<path class="st2_quality-check-8" d="M400.6,301.2h39.1c1.6,0,2.8,1.3,2.8,2.8v6.2c0,1.6-1.3,2.8-2.8,2.8h-39.1c-1.6,0-2.8-1.3-2.8-2.8V304&#10;&#9;&#9;C397.8,302.5,399.1,301.2,400.6,301.2z"/>
	<path class="st1_quality-check-8" d="M436.6,315.2h-32.9c-4.4,0-8-3.6-8-8s3.6-8,8-8h32.9c4.4,0,8,3.6,8,8S441,315.2,436.6,315.2z M403.7,303.3&#10;&#9;&#9;c-2.1,0.1-3.8,1.9-3.7,4.1c0.1,2,1.7,3.6,3.7,3.7h32.9c2.1-0.1,3.8-1.9,3.7-4.1c-0.1-2-1.7-3.6-3.7-3.7H403.7z"/>
	<path class="st1_quality-check-8" d="M438.5,329.6c-1.2,0-2.1-0.9-2.1-2.1c0-0.6,0.2-1.1,0.6-1.5c1-1,3.4-3.8,3.4-7c0-2.1-1.7-3.8-3.9-3.9h-32.9&#10;&#9;&#9;c-2.1,0.1-3.8,1.9-3.7,4.1c0.1,2,1.7,3.6,3.7,3.7h19.2c1.2,0,2.1,0.9,2.1,2.1c0,1.2-0.9,2.1-2.1,2.1h-19.2c-4.4,0-8-3.6-8-8&#10;&#9;&#9;s3.6-8,8-8h32.9c4.4,0,8,3.6,8,8c0,4.6-2.9,8.2-4.7,9.9C439.6,329.3,439,329.5,438.5,329.6z"/>
	<path class="st1_quality-check-8" d="M349,398.9c-1.2,0-2.1-0.9-2.1-2.1v-33c0-1.2,0.9-2.1,2.1-2.1s2.1,0.9,2.1,2.1c0,0,0,0,0,0v33&#10;&#9;&#9;C351.1,397.9,350.2,398.8,349,398.9C349,398.9,349,398.9,349,398.9z"/>
	<path class="st1_quality-check-8" d="M375,379.7c-0.2,0-0.3,0-0.5-0.1c-1.1-0.3-1.8-1.4-1.5-2.5c0,0,0,0,0,0l6.3-25c0.2-1.1,1.3-1.9,2.4-1.7&#10;&#9;&#9;c1.1,0.2,1.9,1.3,1.7,2.4c0,0.1,0,0.2-0.1,0.3l-6.3,25C376.8,379,376,379.7,375,379.7z"/>
	<rect x="312.5" y="340.5" class="st4_quality-check-8" width="26.1" height="14"/>
	<path class="st1_quality-check-8" d="M338.7,356.5h-26.1c-1.2,0-2.1-0.9-2.1-2.1v-14c0-1.2,0.9-2.1,2.1-2.1h26.1c1.2,0,2.1,0.9,2.1,2.1v14&#10;&#9;&#9;C340.8,355.6,339.8,356.5,338.7,356.5z M314.7,352.4h22v-9.8h-22L314.7,352.4z"/>
	<path class="st1_quality-check-8" d="M268.7,218.1h-28.1c-7.8,0-14.1-6.3-14.2-14.1v-11.6c0-7.8,6.3-14.1,14.2-14.1h28.1c7.8,0,14.1,6.3,14.1,14.1&#10;&#9;&#9;v11.6C282.8,211.7,276.5,218,268.7,218.1z M240.6,182.4c-5.5,0-10,4.5-10,10v11.5c0,5.5,4.5,10,10,10h28.1c5.5,0,10-4.5,10-10&#10;&#9;&#9;v-11.6c0-5.5-4.5-10-10-10L240.6,182.4z"/>
	<path class="st1_quality-check-8" d="M343.3,218.1h-28.1c-7.8,0-14.1-6.3-14.1-14.1v-11.6c0-7.8,6.3-14.1,14.1-14.1h28.1c7.8,0,14.1,6.3,14.1,14.1&#10;&#9;&#9;v11.6C357.5,211.7,351.2,218,343.3,218.1z M315.2,182.4c-5.5,0-10,4.5-10,10v11.5c0,5.5,4.5,10,10,10h28.1c5.5,0,10-4.5,10-10&#10;&#9;&#9;v-11.6c0-5.5-4.5-10-10-10L315.2,182.4z"/>
	<path class="st1_quality-check-8" d="M303.2,197.4c-0.5,0-0.9-0.2-1.3-0.4c-8.1-6.3-18-0.1-18.5,0.1c-1,0.6-2.3,0.3-2.9-0.7&#10;&#9;&#9;c-0.6-0.9-0.3-2.2,0.6-2.8c0.5-0.3,12.9-8.1,23.3,0.1c0.9,0.7,1.1,2,0.3,2.9C304.4,197.1,303.8,197.4,303.2,197.4L303.2,197.4z"/>
	<path class="st1_quality-check-8" d="M228.5,190.9h-18.9c-1.2,0-2.1-0.9-2.1-2.1c0-1.2,0.9-2.1,2.1-2.1h18.9c1.2,0,2.1,0.9,2.1,2.1&#10;&#9;&#9;C230.6,189.9,229.7,190.9,228.5,190.9C228.5,190.9,228.5,190.9,228.5,190.9z"/>
	<path class="st1_quality-check-8" d="M374.7,190.9h-18.9c-1.2,0-2.1-0.9-2.1-2.1c0-1.2,0.9-2.1,2.1-2.1c0,0,0,0,0,0h18.9c1.2,0,2.1,0.9,2.1,2.1&#10;&#9;&#9;C376.8,189.9,375.8,190.9,374.7,190.9z"/>
</g>
<g id="check-list_quality-check-8">
	<path class="st6_quality-check-8" d="M103.2,241.2h139.7c2.4,0,4.4,2,4.4,4.4v171.6c0,2.4-2,4.4-4.4,4.4H103.2c-2.4,0-4.4-2-4.4-4.4V245.6&#10;&#9;&#9;C98.8,243.2,100.8,241.2,103.2,241.2z"/>
	<path class="st1_quality-check-8" d="M238.1,423.6H108c-6.2,0-11.3-5-11.3-11.2c0,0,0,0,0,0v-162c0-6.2,5-11.3,11.3-11.3c0,0,0,0,0,0h130.1&#10;&#9;&#9;c6.2,0,11.2,5,11.2,11.2v162C249.3,418.6,244.3,423.6,238.1,423.6z M108,243.3c-3.9,0-7.1,3.2-7.1,7.1v162c0,3.9,3.2,7.1,7.1,7.1&#10;&#9;&#9;h130.1c3.9,0,7.1-3.2,7.1-7.1v-162c0-3.9-3.2-7.1-7.1-7.1H108z"/>
	<rect x="111.6" y="249.6" class="st4_quality-check-8" width="122.7" height="156.9"/>
	<path class="st1_quality-check-8" d="M234.4,408.6H111.6c-1.2,0-2.1-0.9-2.1-2.1V249.6c0-1.2,0.9-2.1,2.1-2.1h122.7c1.2,0,2.1,0.9,2.1,2.1v157&#10;&#9;&#9;C236.4,407.7,235.5,408.6,234.4,408.6z M113.7,404.4h118.5V251.6H113.7V404.4z"/>
	<path class="st0_quality-check-8 targetColor" d="M144.2,232.6h57.6c1.7,0,3,1.4,3,3v16.2c0,1.7-1.4,3-3,3h-57.6c-1.7,0-3-1.4-3-3v-16.2&#10;&#9;&#9;C141.2,234,142.5,232.6,144.2,232.6z" style="fill: rgb(145, 102, 0);"/>
	<path class="st1_quality-check-8" d="M198.5,257h-51c-4.7,0-8.4-3.8-8.4-8.4V239c0-4.7,3.8-8.4,8.4-8.4h51c4.7,0,8.4,3.8,8.4,8.4v9.5&#10;&#9;&#9;C206.9,253.2,203.2,257,198.5,257C198.5,257,198.5,257,198.5,257z M147.5,234.8c-2.4,0-4.3,1.9-4.3,4.3c0,0,0,0,0,0v9.5&#10;&#9;&#9;c0,2.4,1.9,4.3,4.3,4.3h51c2.4,0,4.3-1.9,4.3-4.3c0,0,0,0,0,0V239c0-2.4-1.9-4.3-4.3-4.3c0,0,0,0,0,0L147.5,234.8z"/>
	<path class="st7_quality-check-8" d="M164.4,320h-36.3c-1.2,0-2.1-0.9-2.1-2.1v-40.3c0-1.2,0.9-2.1,2.1-2.1h36.3c1.2,0,2.1,0.9,2.1,2.1v40.2&#10;&#9;&#9;C166.5,319,165.6,320,164.4,320C164.5,320,164.4,320,164.4,320z M130.3,315.8h32.1v-36h-32.1L130.3,315.8z"/>
	<path class="st1_quality-check-8" d="M142.1,313.4c-0.3,0-0.7,0-1-0.1c-1.4-0.3-2.5-1.3-3-2.6l-6.4-17.8c-0.8-2.2,0.3-4.6,2.5-5.4&#10;&#9;&#9;c2.2-0.8,4.6,0.3,5.3,2.5l0,0l4.2,11.8l24.8-23.5c1.6-1.7,4.3-1.7,5.9-0.1c1.7,1.6,1.7,4.3,0.1,5.9c-0.1,0.1-0.2,0.2-0.2,0.2&#10;&#9;&#9;l-29.5,28C144.2,313,143.2,313.4,142.1,313.4z"/>
	<path class="st7_quality-check-8" d="M221.9,292.7h-42.7c-1.2,0-2.1-0.9-2.1-2.1s0.9-2.1,2.1-2.1c0,0,0,0,0,0h42.7c1.2,0,2.1,0.9,2.1,2.1&#10;&#9;&#9;S223,292.7,221.9,292.7C221.9,292.7,221.9,292.7,221.9,292.7z"/>
	<path class="st7_quality-check-8" d="M209.3,307h-30.2c-1.2,0-2.1-0.9-2.1-2.1c0-1.2,0.9-2.1,2.1-2.1h30.2c1.2,0,2.1,0.9,2.1,2.1&#10;&#9;&#9;C211.4,306.1,210.5,307,209.3,307z"/>
	<path class="st7_quality-check-8" d="M164.4,379.2h-36.3c-1.2,0-2.1-0.9-2.1-2.1v-40.2c0-1.2,0.9-2.1,2.1-2.1h36.3c1.2,0,2.1,0.9,2.1,2.1v40.2&#10;&#9;&#9;C166.5,378.2,165.6,379.2,164.4,379.2z M130.3,375h32.1v-36.1h-32.1V375z"/>
	<path class="st1_quality-check-8" d="M142.1,372.6c-0.3,0-0.7,0-1-0.1c-1.4-0.3-2.5-1.3-3-2.6l-6.4-17.8c-0.8-2.2,0.3-4.6,2.5-5.4&#10;&#9;&#9;c2.2-0.8,4.6,0.3,5.3,2.5l4.3,11.8l24.8-23.5c1.7-1.6,4.3-1.5,5.9,0.2s1.5,4.3-0.2,5.9L145,371.5&#10;&#9;&#9;C144.2,372.2,143.2,372.6,142.1,372.6z"/>
	<path class="st7_quality-check-8" d="M221.9,351.9h-42.7c-1.2,0-2.1-0.9-2.1-2.1c0-1.2,0.9-2.1,2.1-2.1h42.7c1.2,0,2.1,0.9,2.1,2.1&#10;&#9;&#9;C223.9,350.9,223,351.9,221.9,351.9z"/>
	<path class="st7_quality-check-8" d="M209.3,366.2h-30.2c-1.2,0-2.1-0.9-2.1-2.1s0.9-2.1,2.1-2.1c0,0,0,0,0,0h30.2c1.2,0,2.1,0.9,2.1,2.1&#10;&#9;&#9;S210.5,366.2,209.3,366.2C209.3,366.2,209.3,366.2,209.3,366.2z"/>
	<path class="st2_quality-check-8" d="M81.8,325.4c0-0.2,0-0.4,0.1-0.6c0.2-2.5,0.9-4.9,2-7.1c5.2-6.9,13.4-7.2,21.3-9.1c5.3-1.3,11.5-2.4,15.7,1.1&#10;&#9;&#9;c0.5,0.4,0.9,0.9,1.1,1.5c0.5,1.6-1,3-2.4,3.8c-4.2,2.5-8.8,4-13.7,4.4c4.7-1,9.5-1,14.2-0.1c2.4,0.5,5.2,1.6,5.5,4.1&#10;&#9;&#9;c0.3,2.9-3.1,4.6-5.9,5.4c-4.1,1-8.2,1.7-12.4,2c4.6-0.5,9.2-0.6,13.8-0.2c1.7,0.1,3.6,0.6,4.3,2.1c0.5,1.3,0.1,2.8-1,3.7&#10;&#9;&#9;c-1.1,0.9-2.3,1.5-3.7,1.8c-4.6,1.3-9.3,2-14,2.1c3.8-0.1,7.7-0.1,11.5,0.1c1.3,0,2.5,0.2,3.6,0.7c1.2,0.5,1.8,1.8,1.7,3&#10;&#9;&#9;c-0.2,0.8-0.7,1.4-1.4,1.8c-3.2,2.4-7.6,1.9-11.6,2c-2.8,0.1-6.3,0.8-8.2,2.9s-1.6,5.1-4.3,6.6c-4.4,2.6-10.8-2.1-13.2-5.6&#10;&#9;&#9;c-3.1-4.6-3.7-10.4-3.7-15.9C81.1,332.3,81.3,328.8,81.8,325.4z"/>
	<path class="st1_quality-check-8" d="M95.1,360.3c-5,0-10-4.3-12-7.3c-3.6-5.4-4-12-4-17.1c0-3.6,0.2-7.2,0.7-10.8l0.1-0.6c0.2-2.7,0.9-5.4,2.1-7.9&#10;&#9;&#9;c0-0.1,0.1-0.2,0.1-0.2c4.7-6.2,11.4-7.6,18-8.9c1.5-0.3,3-0.6,4.5-1c6.3-1.5,12.8-2.4,17.5,1.5c0.8,0.6,1.4,1.5,1.8,2.5&#10;&#9;&#9;c0.7,2.2-0.6,4.5-3.4,6.2l-0.7,0.4l0.5,0.1c4.2,0.8,6.8,3,7.2,5.9c0.3,2.4-1,4.5-3.4,6c1.3,0.5,2.4,1.4,3,2.6&#10;&#9;&#9;c0.9,2.1,0.3,4.6-1.5,6.1c-0.7,0.7-1.6,1.2-2.5,1.5c1.7,1.1,2.6,3.1,2.3,5.1c-0.4,1.2-1.1,2.3-2.2,3c-3.2,2.3-7.2,2.4-10.7,2.4&#10;&#9;&#9;c-0.7,0-1.4,0-2.1,0c-3.1,0.1-5.5,0.9-6.7,2.2c-0.5,0.7-0.9,1.5-1.2,2.3c-0.6,2-1.8,3.7-3.6,4.9C97.8,359.9,96.5,360.3,95.1,360.3z&#10;&#9;&#9; M85.6,318.8c-0.9,1.9-1.5,4-1.7,6.2l-0.1,0.6l0,0c-0.4,3.4-0.6,6.8-0.6,10.2c0,4.5,0.4,10.3,3.3,14.8c2.1,3.1,7.5,6.7,10.3,5&#10;&#9;&#9;c0.9-0.5,1.3-1.4,1.8-2.8c0.4-1.3,1.1-2.4,1.9-3.5c2.6-3,7.2-3.6,9.7-3.6c0.7,0,1.4,0,2.2,0c3.2,0,6.1,0,8.2-1.6&#10;&#9;&#9;c0.6-0.4,0.6-0.6,0.6-0.6c-0.1-0.3-0.3-0.6-0.6-0.7c-0.9-0.3-1.8-0.5-2.7-0.5c-3.8-0.1-7.6-0.2-11.4-0.1c-1.1,0-2.1-0.9-2.1-2&#10;&#9;&#9;c0-1.1,0.9-2.1,2-2.1c4.6-0.2,9.1-0.9,13.5-2.1c1-0.2,2-0.6,2.8-1.3c0.4-0.3,0.6-0.8,0.5-1.3c-0.1-0.2-0.5-0.7-2.6-0.9&#10;&#9;&#9;c-3.6-0.3-7.2-0.4-10.8-0.1c-0.9,0.1-1.8,0.2-2.6,0.2c-1.2,0.1-2.2-0.8-2.2-1.9c-0.1-1.1,0.7-2.1,1.8-2.2c0.9-0.1,1.8-0.2,2.6-0.2&#10;&#9;&#9;c3.2-0.4,6.4-0.9,9.5-1.7c2.3-0.6,4.5-1.8,4.3-3.1s-2.2-2-3.8-2.3c-3.1-0.6-6.3-0.7-9.5-0.5c-1.4,0.3-2.7,0.5-4.1,0.6&#10;&#9;&#9;c-1.2,0.1-2.2-0.8-2.2-1.9c-0.1-1.1,0.6-2,1.7-2.2c1.3-0.3,2.7-0.5,4-0.6c3.2-0.7,6.2-1.9,9-3.6c1.1-0.7,1.5-1.3,1.5-1.4l0,0&#10;&#9;&#9;c-0.1-0.2-0.3-0.3-0.4-0.5c-3.3-2.8-8.6-2-13.9-0.7c-1.5,0.4-3.1,0.7-4.6,1C94.7,312.9,89.3,314,85.6,318.8z M81.8,325.4&#10;&#9;&#9;L81.8,325.4z"/>
</g>
<g id="lines_quality-check-8">
	<path class="st7_quality-check-8" d="M151.2,182.5c-1.2,0-2.1-0.9-2.1-2.1v-8.9c0-1.2,0.9-2.1,2.1-2.1c1.2,0,2.1,0.9,2.1,2.1v8.9&#10;&#9;&#9;C153.3,181.6,152.4,182.5,151.2,182.5z"/>
	<path class="st7_quality-check-8" d="M151.2,201.8c-1.2,0-2.1-0.9-2.1-2.1v-8.9c0-1.2,0.9-2.1,2.1-2.1c1.2,0,2.1,0.9,2.1,2.1v8.9&#10;&#9;&#9;C153.3,200.9,152.4,201.8,151.2,201.8C151.3,201.8,151.3,201.8,151.2,201.8z"/>
	<path class="st7_quality-check-8" d="M165.3,187.7h-8.9c-1.2,0-2.1-0.9-2.1-2.1c0-1.2,0.9-2.1,2.1-2.1c0,0,0,0,0,0h8.9c1.2,0,2.1,0.9,2.1,2.1&#10;&#9;&#9;C167.4,186.8,166.5,187.7,165.3,187.7C165.3,187.7,165.3,187.7,165.3,187.7z"/>
	<path class="st7_quality-check-8" d="M146.1,187.7h-8.9c-1.2,0-2.1-0.9-2.1-2.1c0-1.2,0.9-2.1,2.1-2.1c0,0,0,0,0,0h8.9c1.2,0,2.1,0.9,2.1,2.1&#10;&#9;&#9;C148.1,186.8,147.2,187.7,146.1,187.7z"/>
	<path class="st7_quality-check-8" d="M72.5,238.1c-1.2,0-2.1-1-2.1-2.1c0,0,0,0,0,0v-8.9c0-1.2,0.9-2.1,2.1-2.1c1.2,0,2.1,0.9,2.1,2.1v8.9&#10;&#9;&#9;C74.6,237.2,73.7,238.1,72.5,238.1C72.5,238.1,72.5,238.1,72.5,238.1z"/>
	<path class="st7_quality-check-8" d="M72.5,257.4c-1.2,0-2.1-0.9-2.1-2.1v-8.9c0-1.2,0.9-2.1,2.1-2.1c1.2,0,2.1,0.9,2.1,2.1v8.9&#10;&#9;&#9;C74.6,256.4,73.7,257.4,72.5,257.4C72.5,257.4,72.5,257.4,72.5,257.4z"/>
	<path class="st7_quality-check-8" d="M86.6,243.3h-8.9c-1.2,0-2.1-0.9-2.1-2.1c0-1.2,0.9-2.1,2.1-2.1c0,0,0,0,0,0h8.9c1.2,0,2.1,0.9,2.1,2.1&#10;&#9;&#9;C88.7,242.4,87.7,243.3,86.6,243.3C86.6,243.3,86.6,243.3,86.6,243.3z"/>
	<path class="st7_quality-check-8" d="M67.3,243.3h-8.9c-1.2,0-2.1-0.9-2.1-2.1c0-1.2,0.9-2.1,2.1-2.1c0,0,0,0,0,0h8.9c1.2,0,2.1,0.9,2.1,2.1&#10;&#9;&#9;C69.4,242.4,68.4,243.3,67.3,243.3z"/>
</g>
</svg>