<svg version="1.1" id="Layer_1" xmlns="http://www.w3.org/2000/svg" x="0" y="0" viewBox="0 0 500 500" style="width:144px" xml:space="preserve" data-imageid="quality-check-8" class="illustrations_image">
  <style>
    .st0_quality-check-8{fill:#68e1fd}.st1_quality-check-8{fill:#093f68}.st2_quality-check-8{fill:#ffc9b0}.st4_quality-check-8{fill:#fff}.st5_quality-check-8{fill:#f56132}.st7_quality-check-8{fill:#dfeaef}
  </style>
  <g id="character_quality-check-8">
    <path class="st0_quality-check-8 targetColor" d="m430 307.6-40 4.2-8.6 40.8s-20.1-25.2-27.5-37c-6.1-9.8-15.9-19.1-31.9-19.1h-63.4c-20.4 0-37 16.6-37 37v112.7H349v-58.6s22.4 30.6 42.5 26.6c43.8-6.2 40.8-84.2 38.5-106.6" style="fill:#916600"/>
    <path class="st1_quality-check-8" d="M349 448.3H221.6c-1.2 0-2.1-.9-2.1-2.1V333.5c0-21.6 17.5-39.1 39.1-39.1H322c14 0 25.3 6.8 33.6 20.1 5.6 9 18.8 26 24.6 33.3l7.7-36.4c.2-.9.9-1.6 1.8-1.6l40-4.2c1.1-.1 2.2.7 2.3 1.9.6 5.4 3.1 33.5-2 60-5.7 29.7-18.6 46.1-38.3 48.9-16.2 3.2-33.3-14-40.7-22.8v52.7c0 1-.9 1.9-2 2m-125.3-4.2h123.2v-56.6c0-1.2.9-2.1 2.1-2.1.7 0 1.3.3 1.7.9.2.3 21.8 29.5 40.4 25.8 43.3-6.1 38.2-87.6 37-102.2l-36.4 3.8-8.3 39.2c-.2 1.1-1.3 1.9-2.5 1.6-.5-.1-.9-.4-1.2-.7-.8-1-20.3-25.4-27.6-37.2-7.5-12-17.6-18.1-30-18.1h-63.4c-19.3 0-34.9 15.7-34.9 34.9z"/>
    <path class="st2_quality-check-8" d="M278.1 282.8h27.4v21.8c0 3.1-2.5 5.6-5.6 5.6h-16.3c-3.1 0-5.6-2.5-5.6-5.6v-21.8z"/>
    <path class="st1_quality-check-8" d="M293.8 312.3h-4.1c-7.6 0-13.7-6.1-13.7-13.7v-15.8c0-1.2.9-2.1 2.1-2.1h27.4c1.2 0 2.1.9 2.1 2.1v15.8c-.1 7.5-6.2 13.7-13.8 13.7m-13.6-27.4v13.7c0 5.3 4.3 9.5 9.5 9.5h4.1c5.3 0 9.5-4.3 9.5-9.5v-13.7z"/>
    <path d="M195.4 211.7c-1.3 0-7.2-33-7.9-36.2-3.4-15.3-8.7-31.6-5.6-47.2 1.1-5.9 2.7-11.8 6.1-16.7s9.1-8.6 15.1-8.1c-1.3-.1 7.5-16.5 8.7-17.8 4.3-4.7 10.2-9.1 15.2-13.1 12-9.6 27.2-15.1 42.3-17.4 24.8-3.5 50.2-.1 73.2 10.1 17.2 7.5 33.2 18.7 43.7 34.2 21.6 31.6 9 74.9 2.8 109.6l-17-3z" style="fill:#725858"/>
    <path class="st1_quality-check-8" d="M195.2 213.8c-2.1 0-2.8-1.4-8.6-31.9-.6-3-1-5.2-1.1-5.9-.6-2.5-1.1-4.9-1.8-7.4-3.2-13.3-6.5-27.1-3.9-40.6 1.2-6 2.8-12.2 6.5-17.5 3.8-5.4 9.5-8.8 15.1-9 1.8-5.7 8.7-17 8.8-17.1 4-4.1 8.3-7.9 12.9-11.3l2.6-2.1c11.5-9.1 26.4-15.3 43.3-17.8 25.2-3.6 51-.1 74.3 10.2 19.4 8.4 34.8 20.5 44.6 35 19.2 28.2 12.1 64.9 5.8 97.3-.9 4.8-1.8 9.4-2.6 13.9-.2 1.1-1.3 1.9-2.4 1.7l-16.8-2.9-176.4 5.5zm6.9-108.2c-4.5 0-9.3 2.8-12.4 7.2-3.3 4.6-4.7 10.4-5.8 15.9-2.5 12.6.8 25.9 3.9 38.8l1.8 7.5c.2.7.6 3 1.2 6.1 1.3 6.8 4.6 24 6 28.4L372 204h.4l14.9 2.6c.7-3.9 1.5-7.9 2.3-12 6.2-31.6 13.2-67.3-5.1-94.1-9.4-13.8-24.2-25.4-42.9-33.5-22.8-9.9-48.4-13.4-72-9.9-16.1 2.4-30.4 8.3-41.3 16.9l-2.6 2.1c-4.4 3.3-8.6 6.9-12.4 10.8-1.1 1.4-7.3 13.1-8.2 16v.6c-.1 1.1-1.1 2-2.2 1.9-.3.2-.5.2-.8.2"/>
    <ellipse class="st2_quality-check-8" cx="213.5" cy="211.7" rx="26.6" ry="22.9"/>
    <path class="st1_quality-check-8" d="M213.5 236.7c-15.8 0-28.7-11.2-28.7-25s12.9-25 28.7-25 28.7 11.2 28.7 25-12.8 25-28.7 25m0-45.8c-13.5 0-24.5 9.3-24.5 20.8s11 20.8 24.5 20.8 24.5-9.3 24.5-20.8-10.9-20.8-24.5-20.8"/>
    <ellipse class="st2_quality-check-8" cx="368.6" cy="211.7" rx="26.6" ry="22.9"/>
    <path class="st1_quality-check-8" d="M368.6 236.7c-15.8 0-28.7-11.2-28.7-25s12.9-25 28.7-25 28.7 11.2 28.7 25-12.9 25-28.7 25m0-45.8c-13.5 0-24.5 9.4-24.5 20.8s11 20.8 24.5 20.8 24.5-9.3 24.5-20.8-11-20.8-24.5-20.8"/>
    <path class="st2_quality-check-8" d="M291.8 286.4c-41.8 0-76.6-32-80-73.6-1.4-17.3-4.9-33.6.7-50.6 1.8-5.3 4.3-10.5 8.5-14.1s10.6-5 15.5-2.3c2.8-11.1 14.4-18.2 25.8-19.5s22.7 2 33.7 5.3c20.4 6.1 40.2 14 59.3 23.6 22.6 11.3 16.7 29.8 16.7 51.1 0 44.2-35.9 80.1-80.2 80.1"/>
    <path class="st1_quality-check-8" d="M291.8 288.5c-42.8 0-78.5-32.9-82-75.6-.3-3.3-.6-6.6-1-9.8-1.5-14.1-2.9-27.5 1.8-41.6 2.3-7 5.2-11.7 9.2-15 4.5-3.8 10.6-5.1 15.5-3.5 4.1-11.3 16.1-17.6 26.8-18.8 12-1.4 24 2.2 34.6 5.3 20.5 6.2 40.5 14.1 59.6 23.7 19.8 9.9 19 25.5 18.2 42-.2 3.6-.4 7.2-.4 11 0 45.4-36.9 82.2-82.3 82.3m-60.9-142c-3.1.1-6.1 1.2-8.5 3.2-3.3 2.8-5.8 6.9-7.9 13.1-4.4 13.3-3 26.2-1.6 39.9.4 3.3.7 6.6 1 9.9 1.1 13.1 5.5 25.8 12.7 36.8 14.6 21.7 39 34.8 65.1 34.9 43.1 0 78.1-35 78.1-78.1 0-3.8.2-7.6.4-11.2.8-16.4 1.5-29.4-15.9-38.1-19-9.5-38.7-17.3-59-23.4-10.2-3-21.7-6.5-32.9-5.2-9.6 1.1-21.2 7.2-23.9 18-.2.6-.6 1.1-1.2 1.4s-1.3.2-1.8-.1c-1.4-.7-3-1.1-4.6-1.1"/>
    <circle transform="rotate(-80.781 254.644 194.506)" class="st1_quality-check-8" cx="254.6" cy="194.5" r="7.4"/>
    <circle class="st1_quality-check-8" cx="331.2" cy="194.5" r="7.4"/>
    <path class="st4_quality-check-8" d="M321 230.4c-.3 16.2-13.6 29-29.8 28.7-15.7-.3-28.4-13-28.7-28.7z"/>
    <path class="st1_quality-check-8" d="M291.8 261.7c-17.3 0-31.3-14-31.4-31.4 0-1.2.9-2.1 2.1-2.1H321c1.1 0 2.1.9 2.1 2.1 0 17.4-14 31.4-31.3 31.4m-27.1-29.3c1.2 15 14.3 26.1 29.2 24.9 13.3-1.1 23.9-11.6 24.9-24.9zm26.7-10.8q-3.6 0-7.2-.6c-1.1-.2-1.9-1.3-1.7-2.4s1.3-1.9 2.4-1.7c.1 0 6.7 1.1 11.2.1.6-1.9-2.2-10.1-6.2-17.9-.5-1-.1-2.3.9-2.8s2.3-.1 2.8.9c2 3.9 8.4 16.9 6.3 21.6-.5 1.1-1.4 1.9-2.5 2.2q-3 .6-6 .6m-56.9-49.8c-2.3 0-4.2-1.8-4.2-4.2 0-2.2 1.6-4 3.8-4.2l35.2-3.7c2.3-.2 4.4 1.4 4.6 3.7s-1.4 4.4-3.7 4.6l-35.2 3.7c-.2.1-.4.1-.5.1m120.9 3.3c-.3 0-.5 0-.8-.1l-34.8-6.6c-2.3-.4-3.8-2.6-3.3-4.9.4-2.3 2.6-3.8 4.9-3.3l34.8 6.6c2.3.4 3.8 2.6 3.3 4.9-.3 1.9-2.1 3.4-4.1 3.4"/>
    <path class="st5_quality-check-8" d="M285.1 313.2h14.6c1.6 0 2.8 1.3 2.8 2.8v10.3c0 1.6-1.3 2.8-2.8 2.8h-14.6c-1.6 0-2.8-1.3-2.8-2.8V316c0-1.6 1.3-2.8 2.8-2.8"/>
    <path class="st1_quality-check-8" d="M296.7 331.2h-8.5c-4.4 0-8-3.6-8-8V319c0-4.4 3.6-8 8-8h8.5c4.4 0 8 3.6 8 8v4.2c0 4.4-3.6 8-8 8m-8.5-16c-2.1 0-3.8 1.7-3.8 3.8v4.2c0 2.1 1.7 3.8 3.8 3.8h8.5c2.1 0 3.8-1.7 3.8-3.8V319c0-2.1-1.7-3.8-3.8-3.8z"/>
    <path class="st5_quality-check-8" d="m286.6 329.1-12.8 72.6 18.6 24.4 14-25.6-8.1-71.4z"/>
    <path class="st1_quality-check-8" d="M292.4 428.2c-.7 0-1.3-.3-1.7-.8L272.2 403c-.4-.5-.5-1.1-.4-1.6l12.8-72.5c.2-1 1-1.7 2.1-1.7h11.6c1.1 0 2 .8 2.1 1.9l8.1 71.4c0 .4 0 .9-.2 1.2l-14 25.6c-.3.6-1 1-1.7 1.1zm-16.4-27 16.1 21.1 12.1-22.2-7.9-68.8h-8z"/>
    <path class="st2_quality-check-8" d="M412.5 282.9v-24.3c.2-5.7-4.3-10.4-9.9-10.6-5.7-.2-10.4 4.3-10.6 9.9v31.3h.1c-2.3 3.8-3.7 9.8-3.7 19.3 0 25.8 12 30.2 24.3 30.2s27.6-9.6 29.1-16.9c2.7-13.1-17.9-37.8-29.3-38.9"/>
    <path class="st1_quality-check-8" d="M412.7 340.9c-11.3 0-26.4-3.4-26.4-32.3 0-8.8 1.2-15.3 3.6-19.7v-30.3c-.2-6.8 5.2-12.5 12-12.7s12.5 5.2 12.7 12v23.3c6.9 1.8 15.2 9.5 20.6 16.8 3.2 4.3 10.5 15.4 8.7 24.4-1.8 8.6-18.4 18.5-31.2 18.5m-18.6-52c.1.5.1 1.1-.2 1.6-2.3 3.7-3.4 9.6-3.4 18.2 0 24.8 11.2 28.1 22.2 28.1 11.3 0 25.8-9.1 27-15.2 1-5-2-13-7.9-21-6.4-8.6-14.4-15-19.5-15.5-1.1-.1-1.9-1-1.9-2.1v-24.4c.2-4.5-3.4-8.3-7.9-8.4-4.5-.2-8.3 3.4-8.4 7.9z"/>
    <path class="st2_quality-check-8" d="M400.6 277.4h39.1c1.6 0 2.8 1.3 2.8 2.8v6.2c0 1.6-1.3 2.8-2.8 2.8h-39.1c-1.6 0-2.8-1.3-2.8-2.8v-6.2c0-1.5 1.3-2.8 2.8-2.8"/>
    <path class="st1_quality-check-8" d="M436.6 291.4h-32.9c-4.4 0-8-3.6-8-8s3.6-8 8-8h32.9c4.4 0 8 3.6 8 8s-3.6 8-8 8m-32.9-11.9c-2.1 0-3.9 1.7-3.9 3.9s1.7 3.9 3.9 3.9h32.9c2.1 0 3.9-1.7 3.9-3.9s-1.7-3.9-3.9-3.9z"/>
    <path class="st2_quality-check-8" d="M400.6 289.3h39.1c1.6 0 2.8 1.3 2.8 2.8v6.2c0 1.6-1.3 2.8-2.8 2.8h-39.1c-1.6 0-2.8-1.3-2.8-2.8v-6.2c0-1.5 1.3-2.8 2.8-2.8"/>
    <path class="st1_quality-check-8" d="M436.6 303.3h-32.9c-4.4 0-8-3.6-8-8s3.6-8 8-8h32.9c4.4 0 8 3.6 8 8s-3.6 8-8 8m-32.9-11.9c-2.1.1-3.8 1.9-3.7 4.1.1 2 1.7 3.6 3.7 3.7h32.9c2.1-.1 3.8-1.9 3.7-4.1-.1-2-1.7-3.6-3.7-3.7z"/>
    <path class="st2_quality-check-8" d="M400.6 301.2h39.1c1.6 0 2.8 1.3 2.8 2.8v6.2c0 1.6-1.3 2.8-2.8 2.8h-39.1c-1.6 0-2.8-1.3-2.8-2.8V304c0-1.5 1.3-2.8 2.8-2.8"/>
    <path class="st1_quality-check-8" d="M436.6 315.2h-32.9c-4.4 0-8-3.6-8-8s3.6-8 8-8h32.9c4.4 0 8 3.6 8 8s-3.6 8-8 8m-32.9-11.9c-2.1.1-3.8 1.9-3.7 4.1.1 2 1.7 3.6 3.7 3.7h32.9c2.1-.1 3.8-1.9 3.7-4.1-.1-2-1.7-3.6-3.7-3.7z"/>
    <path class="st1_quality-check-8" d="M438.5 329.6c-1.2 0-2.1-.9-2.1-2.1q0-.9.6-1.5c1-1 3.4-3.8 3.4-7 0-2.1-1.7-3.8-3.9-3.9h-32.9c-2.1.1-3.8 1.9-3.7 4.1.1 2 1.7 3.6 3.7 3.7h19.2c1.2 0 2.1.9 2.1 2.1s-.9 2.1-2.1 2.1h-19.2c-4.4 0-8-3.6-8-8s3.6-8 8-8h32.9c4.4 0 8 3.6 8 8 0 4.6-2.9 8.2-4.7 9.9-.2.3-.8.5-1.3.6M349 398.9c-1.2 0-2.1-.9-2.1-2.1v-33c0-1.2.9-2.1 2.1-2.1s2.1.9 2.1 2.1v33c0 1.1-.9 2-2.1 2.1m26-19.2c-.2 0-.3 0-.5-.1-1.1-.3-1.8-1.4-1.5-2.5l6.3-25c.2-1.1 1.3-1.9 2.4-1.7s1.9 1.3 1.7 2.4c0 .1 0 .2-.1.3l-6.3 25c-.2.9-1 1.6-2 1.6"/>
    <path class="st4_quality-check-8" d="M312.5 340.5h26.1v14h-26.1z"/>
    <path class="st1_quality-check-8" d="M338.7 356.5h-26.1c-1.2 0-2.1-.9-2.1-2.1v-14c0-1.2.9-2.1 2.1-2.1h26.1c1.2 0 2.1.9 2.1 2.1v14c0 1.2-1 2.1-2.1 2.1m-24-4.1h22v-9.8h-22zm-46-134.3h-28.1c-7.8 0-14.1-6.3-14.2-14.1v-11.6c0-7.8 6.3-14.1 14.2-14.1h28.1c7.8 0 14.1 6.3 14.1 14.1V204c0 7.7-6.3 14-14.1 14.1m-28.1-35.7c-5.5 0-10 4.5-10 10v11.5c0 5.5 4.5 10 10 10h28.1c5.5 0 10-4.5 10-10v-11.6c0-5.5-4.5-10-10-10zm102.7 35.7h-28.1c-7.8 0-14.1-6.3-14.1-14.1v-11.6c0-7.8 6.3-14.1 14.1-14.1h28.1c7.8 0 14.1 6.3 14.1 14.1V204c.1 7.7-6.2 14-14.1 14.1m-28.1-35.7c-5.5 0-10 4.5-10 10v11.5c0 5.5 4.5 10 10 10h28.1c5.5 0 10-4.5 10-10v-11.6c0-5.5-4.5-10-10-10z"/>
    <path class="st1_quality-check-8" d="M303.2 197.4c-.5 0-.9-.2-1.3-.4-8.1-6.3-18-.1-18.5.1-1 .6-2.3.3-2.9-.7-.6-.9-.3-2.2.6-2.8.5-.3 12.9-8.1 23.3.1.9.7 1.1 2 .3 2.9-.3.5-.9.8-1.5.8m-74.7-6.5h-18.9c-1.2 0-2.1-.9-2.1-2.1s.9-2.1 2.1-2.1h18.9c1.2 0 2.1.9 2.1 2.1 0 1.1-.9 2.1-2.1 2.1m146.2 0h-18.9c-1.2 0-2.1-.9-2.1-2.1s.9-2.1 2.1-2.1h18.9c1.2 0 2.1.9 2.1 2.1 0 1.1-1 2.1-2.1 2.1"/>
  </g>
  <g id="check-list_quality-check-8">
    <path d="M103.2 241.2h139.7c2.4 0 4.4 2 4.4 4.4v171.6c0 2.4-2 4.4-4.4 4.4H103.2c-2.4 0-4.4-2-4.4-4.4V245.6c0-2.4 2-4.4 4.4-4.4" style="fill:#ffbc0e"/>
    <path class="st1_quality-check-8" d="M238.1 423.6H108c-6.2 0-11.3-5-11.3-11.2v-162c0-6.2 5-11.3 11.3-11.3h130.1c6.2 0 11.2 5 11.2 11.2v162c0 6.3-5 11.3-11.2 11.3M108 243.3c-3.9 0-7.1 3.2-7.1 7.1v162c0 3.9 3.2 7.1 7.1 7.1h130.1c3.9 0 7.1-3.2 7.1-7.1v-162c0-3.9-3.2-7.1-7.1-7.1z"/>
    <path class="st4_quality-check-8" d="M111.6 249.6h122.7v156.9H111.6z"/>
    <path class="st1_quality-check-8" d="M234.4 408.6H111.6c-1.2 0-2.1-.9-2.1-2.1V249.6c0-1.2.9-2.1 2.1-2.1h122.7c1.2 0 2.1.9 2.1 2.1v157c0 1.1-.9 2-2 2m-120.7-4.2h118.5V251.6H113.7z"/>
    <path class="st0_quality-check-8 targetColor" d="M144.2 232.6h57.6c1.7 0 3 1.4 3 3v16.2c0 1.7-1.4 3-3 3h-57.6c-1.7 0-3-1.4-3-3v-16.2c0-1.6 1.3-3 3-3" style="fill:#916600"/>
    <path class="st1_quality-check-8" d="M198.5 257h-51c-4.7 0-8.4-3.8-8.4-8.4V239c0-4.7 3.8-8.4 8.4-8.4h51c4.7 0 8.4 3.8 8.4 8.4v9.5c0 4.7-3.7 8.5-8.4 8.5m-51-22.2c-2.4 0-4.3 1.9-4.3 4.3v9.5c0 2.4 1.9 4.3 4.3 4.3h51c2.4 0 4.3-1.9 4.3-4.3V239c0-2.4-1.9-4.3-4.3-4.3z"/>
    <path class="st7_quality-check-8" d="M164.4 320h-36.3c-1.2 0-2.1-.9-2.1-2.1v-40.3c0-1.2.9-2.1 2.1-2.1h36.3c1.2 0 2.1.9 2.1 2.1v40.2c0 1.2-.9 2.2-2.1 2.2.1 0 0 0 0 0m-34.1-4.2h32.1v-36h-32.1z"/>
    <path class="st1_quality-check-8" d="M142.1 313.4c-.3 0-.7 0-1-.1-1.4-.3-2.5-1.3-3-2.6l-6.4-17.8c-.8-2.2.3-4.6 2.5-5.4s4.6.3 5.3 2.5l4.2 11.8 24.8-23.5c1.6-1.7 4.3-1.7 5.9-.1 1.7 1.6 1.7 4.3.1 5.9l-.2.2-29.5 28c-.6.7-1.6 1.1-2.7 1.1"/>
    <path class="st7_quality-check-8" d="M221.9 292.7h-42.7c-1.2 0-2.1-.9-2.1-2.1s.9-2.1 2.1-2.1h42.7c1.2 0 2.1.9 2.1 2.1s-1 2.1-2.1 2.1M209.3 307h-30.2c-1.2 0-2.1-.9-2.1-2.1s.9-2.1 2.1-2.1h30.2c1.2 0 2.1.9 2.1 2.1s-.9 2.1-2.1 2.1m-44.9 72.2h-36.3c-1.2 0-2.1-.9-2.1-2.1v-40.2c0-1.2.9-2.1 2.1-2.1h36.3c1.2 0 2.1.9 2.1 2.1v40.2c0 1.1-.9 2.1-2.1 2.1m-34.1-4.2h32.1v-36.1h-32.1z"/>
    <path class="st1_quality-check-8" d="M142.1 372.6c-.3 0-.7 0-1-.1-1.4-.3-2.5-1.3-3-2.6l-6.4-17.8c-.8-2.2.3-4.6 2.5-5.4s4.6.3 5.3 2.5l4.3 11.8 24.8-23.5c1.7-1.6 4.3-1.5 5.9.2s1.5 4.3-.2 5.9L145 371.5c-.8.7-1.8 1.1-2.9 1.1"/>
    <path class="st7_quality-check-8" d="M221.9 351.9h-42.7c-1.2 0-2.1-.9-2.1-2.1s.9-2.1 2.1-2.1h42.7c1.2 0 2.1.9 2.1 2.1-.1 1.1-1 2.1-2.1 2.1m-12.6 14.3h-30.2c-1.2 0-2.1-.9-2.1-2.1s.9-2.1 2.1-2.1h30.2c1.2 0 2.1.9 2.1 2.1s-.9 2.1-2.1 2.1"/>
    <path class="st2_quality-check-8" d="M81.8 325.4c0-.2 0-.4.1-.6.2-2.5.9-4.9 2-7.1 5.2-6.9 13.4-7.2 21.3-9.1 5.3-1.3 11.5-2.4 15.7 1.1.5.4.9.9 1.1 1.5.5 1.6-1 3-2.4 3.8-4.2 2.5-8.8 4-13.7 4.4 4.7-1 9.5-1 14.2-.1 2.4.5 5.2 1.6 5.5 4.1.3 2.9-3.1 4.6-5.9 5.4-4.1 1-8.2 1.7-12.4 2 4.6-.5 9.2-.6 13.8-.2 1.7.1 3.6.6 4.3 2.1.5 1.3.1 2.8-1 3.7s-2.3 1.5-3.7 1.8c-4.6 1.3-9.3 2-14 2.1 3.8-.1 7.7-.1 11.5.1 1.3 0 2.5.2 3.6.7 1.2.5 1.8 1.8 1.7 3-.2.8-.7 1.4-1.4 1.8-3.2 2.4-7.6 1.9-11.6 2-2.8.1-6.3.8-8.2 2.9s-1.6 5.1-4.3 6.6c-4.4 2.6-10.8-2.1-13.2-5.6-3.1-4.6-3.7-10.4-3.7-15.9 0-3.6.2-7.1.7-10.5"/>
    <path class="st1_quality-check-8" d="M95.1 360.3c-5 0-10-4.3-12-7.3-3.6-5.4-4-12-4-17.1 0-3.6.2-7.2.7-10.8l.1-.6c.2-2.7.9-5.4 2.1-7.9 0-.1.1-.2.1-.2 4.7-6.2 11.4-7.6 18-8.9 1.5-.3 3-.6 4.5-1 6.3-1.5 12.8-2.4 17.5 1.5.8.6 1.4 1.5 1.8 2.5.7 2.2-.6 4.5-3.4 6.2l-.7.4.5.1c4.2.8 6.8 3 7.2 5.9.3 2.4-1 4.5-3.4 6 1.3.5 2.4 1.4 3 2.6.9 2.1.3 4.6-1.5 6.1-.7.7-1.6 1.2-2.5 1.5 1.7 1.1 2.6 3.1 2.3 5.1-.4 1.2-1.1 2.3-2.2 3-3.2 2.3-7.2 2.4-10.7 2.4h-2.1c-3.1.1-5.5.9-6.7 2.2-.5.7-.9 1.5-1.2 2.3-.6 2-1.8 3.7-3.6 4.9-1.1.7-2.4 1.1-3.8 1.1m-9.5-41.5c-.9 1.9-1.5 4-1.7 6.2l-.1.6q-.6 5.1-.6 10.2c0 4.5.4 10.3 3.3 14.8 2.1 3.1 7.5 6.7 10.3 5 .9-.5 1.3-1.4 1.8-2.8.4-1.3 1.1-2.4 1.9-3.5 2.6-3 7.2-3.6 9.7-3.6h2.2c3.2 0 6.1 0 8.2-1.6.6-.4.6-.6.6-.6-.1-.3-.3-.6-.6-.7-.9-.3-1.8-.5-2.7-.5-3.8-.1-7.6-.2-11.4-.1-1.1 0-2.1-.9-2.1-2s.9-2.1 2-2.1q6.9-.3 13.5-2.1c1-.2 2-.6 2.8-1.3.4-.3.6-.8.5-1.3-.1-.2-.5-.7-2.6-.9-3.6-.3-7.2-.4-10.8-.1-.9.1-1.8.2-2.6.2-1.2.1-2.2-.8-2.2-1.9-.1-1.1.7-2.1 1.8-2.2.9-.1 1.8-.2 2.6-.2 3.2-.4 6.4-.9 9.5-1.7 2.3-.6 4.5-1.8 4.3-3.1s-2.2-2-3.8-2.3c-3.1-.6-6.3-.7-9.5-.5-1.4.3-2.7.5-4.1.6-1.2.1-2.2-.8-2.2-1.9-.1-1.1.6-2 1.7-2.2 1.3-.3 2.7-.5 4-.6q4.8-1.05 9-3.6c1.1-.7 1.5-1.3 1.5-1.4-.1-.2-.3-.3-.4-.5-3.3-2.8-8.6-2-13.9-.7-1.5.4-3.1.7-4.6 1-6.2 1.5-11.6 2.6-15.3 7.4m-3.8 6.6"/>
  </g>
  <path class="st7_quality-check-8" d="M151.2 182.5c-1.2 0-2.1-.9-2.1-2.1v-8.9c0-1.2.9-2.1 2.1-2.1s2.1.9 2.1 2.1v8.9c0 1.2-.9 2.1-2.1 2.1m0 19.3c-1.2 0-2.1-.9-2.1-2.1v-8.9c0-1.2.9-2.1 2.1-2.1s2.1.9 2.1 2.1v8.9c0 1.2-.9 2.1-2.1 2.1q.15 0 0 0m14.1-14.1h-8.9c-1.2 0-2.1-.9-2.1-2.1s.9-2.1 2.1-2.1h8.9c1.2 0 2.1.9 2.1 2.1s-.9 2.1-2.1 2.1m-19.2 0h-8.9c-1.2 0-2.1-.9-2.1-2.1s.9-2.1 2.1-2.1h8.9c1.2 0 2.1.9 2.1 2.1-.1 1.2-1 2.1-2.1 2.1m-73.6 50.4c-1.2 0-2.1-1-2.1-2.1v-8.9c0-1.2.9-2.1 2.1-2.1s2.1.9 2.1 2.1v8.9c0 1.2-.9 2.1-2.1 2.1m0 19.3c-1.2 0-2.1-.9-2.1-2.1v-8.9c0-1.2.9-2.1 2.1-2.1s2.1.9 2.1 2.1v8.9c0 1.1-.9 2.1-2.1 2.1m14.1-14.1h-8.9c-1.2 0-2.1-.9-2.1-2.1s.9-2.1 2.1-2.1h8.9c1.2 0 2.1.9 2.1 2.1s-1 2.1-2.1 2.1m-19.3 0h-8.9c-1.2 0-2.1-.9-2.1-2.1s.9-2.1 2.1-2.1h8.9c1.2 0 2.1.9 2.1 2.1s-1 2.1-2.1 2.1" id="lines_quality-check-8"/>
</svg>
