<svg width="552.81" height="515.459" viewBox="0 0 552.81 515.459" xmlns="http://www.w3.org/2000/svg"><path d="M372.633 365.415H174.325c-16.669 0-30.23-13.56-30.23-30.23V136.877c0-16.669 13.561-30.23 30.23-30.23h198.308c16.669 0 30.23 13.561 30.23 30.23v198.308c0 16.67-13.561 30.23-30.23 30.23m-198.308-253.93c-14.024 0-25.393 11.368-25.393 25.392v198.308c0 14.024 11.369 25.393 25.393 25.393h138.91c46.829 0 84.791-37.962 84.791-84.79v-138.91c0-14.025-11.369-25.394-25.393-25.394z" fill="#f2f2f2"/><path d="M195.704 132.106c-9.385 0-17.02 7.635-17.02 17.021v26.642c0 9.386 7.635 17.021 17.02 17.021h26.642c9.386 0 17.021-7.635 17.021-17.021v-26.642c0-9.386-7.635-17.02-17.02-17.02zm0 75c-9.385 0-17.02 7.635-17.02 17.021v26.642c0 9.386 7.635 17.021 17.02 17.021h26.642c9.386 0 17.021-7.635 17.021-17.021v-26.642c0-9.386-7.635-17.02-17.02-17.02zm0 75c-9.385 0-17.02 7.635-17.02 17.021v26.642c0 9.386 7.635 17.021 17.02 17.021h26.642c9.386 0 17.021-7.635 17.021-17.021v-26.642c0-9.386-7.635-17.02-17.02-17.02z" fill="#f2f2f2"/><path d="M213.372 67.106c-11.827 0-21.448 9.62-21.448 21.447v33.57c0 11.826 9.621 21.447 21.447 21.447h33.57c11.826 0 21.447-9.621 21.447-21.447v-33.57c0-11.826-9.62-21.447-21.447-21.447zm110.518 93.813c-11.826 0-21.447 9.62-21.447 21.447v33.57c0 11.825 9.621 21.446 21.447 21.446h33.57c11.826 0 21.447-9.62 21.447-21.447v-33.57c0-11.826-9.62-21.446-21.447-21.446z" fill="#ff5733"/><path fill="#a0616a" d="m266.004 471.833 10.065.084-.227 26.891-6.82-.058z"/><path d="M253.998 509.652a3.053 3.053 0 0 0 3.023 3.076l13.56.113 2.373-4.811.872 4.836 5.116.046-1.292-17.248-1.78-.119-7.26-.5-2.343-.157-.04 4.88-10.893 7.388a3.05 3.05 0 0 0-1.336 2.496" fill="#2f2e41"/><path fill="#a0616a" d="m300.702 471.833 10.065.084-.227 26.891-6.82-.058z"/><path d="M288.696 509.652a3.053 3.053 0 0 0 3.023 3.076l13.559.113 2.374-4.811.871 4.836 5.117.046-1.292-17.248-1.78-.119-7.26-.5-2.343-.157-.041 4.88-10.892 7.388a3.05 3.05 0 0 0-1.336 2.496m-39.615-228.474 27.644.873 26.188 5.82s-2.619 3.2 6.11 11.93c0 0 11.64 20.37 3.493 40.156l-3.492 79.148s10.18 55.793 2.402 73.55l-10.28.643-17.397-73.55-8.48-79.209-4.073 77.984s15.585 53.526 5.743 74.775l-11.134-.642-19.052-74.133s-8.147-85.55-6.983-101.845 9.311-35.5 9.311-35.5" fill="#2f2e41"/><path d="M341.914 156.113a7.07 7.07 0 0 0-5.07 8.614 7.03 7.03 0 0 0 2.877 4.07v.01l-.537 12.985 9.937 4.599.793-19.982-.069.002a7.04 7.04 0 0 0 .683-5.227 7.07 7.07 0 0 0-8.614-5.071" fill="#a0616a"/><path d="M286.378 202.455c-2.088-2.07-3.299-4.875-3.344-7.925-.06-4.092 1.99-7.807 5.486-9.935a11.38 11.38 0 0 1 12.825.63l31.203 23.494 5.56-33.844 11.936 3.843-2.848 44.07a8.86 8.86 0 0 1-4.66 7.264 8.86 8.86 0 0 1-8.63-.098l-45.093-25.655a11.6 11.6 0 0 1-2.435-1.844" fill="#3f3d56"/><path d="M238.8 137.182a7.07 7.07 0 0 1-2.465 9.687 7.03 7.03 0 0 1-4.91.865l-.006.007-8.762 9.599-10.294-3.73 13.505-14.749.048.05a7.04 7.04 0 0 1 3.195-4.193 7.07 7.07 0 0 1 9.688 2.464z" fill="#a0616a"/><path d="m242.584 208.787-50.086-13.529a8.86 8.86 0 0 1-6.197-6.006 8.86 8.86 0 0 1 1.804-8.44l29.005-33.301 11.183 5.675-19.88 27.949 38.7 5.284a11.38 11.38 0 0 1 9.551 8.582c.984 3.973-.175 8.054-3.1 10.917-2.18 2.135-5.014 3.274-7.953 3.274-1.004 0-2.021-.133-3.027-.405" fill="#3f3d56"/><path d="m313.989 292.822-70.038 3.213c-1.924-2.921-1.403-7.313 1.291-12.814 10.171-20.767 2.447-60.054-2.75-80.511-1.458-5.74 2.456-11.446 8.349-12.036l6.603-.66 6.105-18.634h21.378l8.87 10.133 15.052 9.144c-2.74 28.22-14.414 68.07 2.217 88.055 3.637 4.37 4.668 9.097 2.923 14.11" fill="#3f3d56"/><circle cx="271.519" cy="150.987" r="20.824" fill="#a0616a"/><path d="M295.082 137.658c2.898-10.563-28.679-19.621-34.815-11.115-.853-1.21-4.007-1.944-5.454-1.573-1.446.371-2.663 1.299-3.85 2.196-1.633 1.254-3.324 2.553-4.326 4.356-1.009 1.795-1.165 4.244.193 5.802 1.076 1.239 2.966 7.823 4.584 8.15a79 79 0 0 0 2.893.549c.728-1.061 2.582-2.394 2.448-3.678 1.098.727.697 2.007.476 3.314-.737 4.354-17.347 38.055-7.834 28.124.943.557 2.107 1.076 3.45 1.55 2.278-3.434 4.148-7.485 5.38-11.722l.008.078c.425 3.682 3.115 6.703 6.675 7.734 14.28 4.137 25.83-1.933 29.803-12.88-1.455-2.953-2.088-2.632-1.958-2.72 1.816-1.224 4.311-.423 5.092 1.623.23.603.439 1.118.62 1.505 2.07-7.404 4.532-6.336-3.384-21.293z" fill="#2f2e41"/><path d="m285.231 129.994-1.458-7.457c-.123-.627-.24-1.307.043-1.88.364-.736 1.297-1.04 2.11-.923s1.42.859 2.227 1.002c2.81.496 6.524-2.279 7.53 4.742.42 2.927 5.092 3.237 6.652 5.749s1.751 6.139-.378 8.191c-1.7 1.64-4.43 1.828-6.64.991-2.208-.837-3.98-2.529-5.528-4.312s-2.95-3.714-4.736-5.26" fill="#2f2e41"/><path d="M296.195 141.336c-5.698-.796-9.582-2.868-11.544-6.159-2.568-4.307-.848-9.05-.773-9.25l1.204.448c-.016.043-1.576 4.385.68 8.155 1.754 2.933 5.324 4.795 10.61 5.533zm26.739-80.574c-16.751 0-30.381-13.63-30.381-30.38C292.553 13.63 306.183 0 322.933 0c16.752 0 30.382 13.63 30.382 30.381s-13.63 30.381-30.381 30.381m0-48.61c-10.052 0-18.229 8.177-18.229 18.23 0 10.051 8.177 18.228 18.229 18.228s18.229-8.177 18.229-18.229-8.177-18.229-18.23-18.229" fill="#ff5733"/><path d="M369.677 81.409a6.05 6.05 0 0 1-4.153-1.644l-28.515-26.723a6.07 6.07 0 0 1-.279-8.586 6.06 6.06 0 0 1 8.586-.279L373.831 70.9a6.07 6.07 0 0 1 .279 8.586 6.05 6.05 0 0 1-4.433 1.923" fill="#ff5733"/><path d="M498.551 498.126c2.066.13 3.208-2.437 1.645-3.933l-.155-.619.061-.148c2.09-4.982 9.17-4.947 11.242.042 1.838 4.428 4.18 8.864 4.756 13.546a18 18 0 0 1-.317 6.2c4.308-9.41 6.575-19.686 6.575-30.02q.002-3.897-.433-7.784a72 72 0 0 0-.994-6.31c-2.306-11.277-7.299-22.018-14.5-30.99-3.462-1.892-6.35-4.85-8.093-8.396-.627-1.279-1.118-2.655-1.35-4.056.394.051 1.485-5.949 1.188-6.317.55-.833 1.532-1.247 2.132-2.06 2.982-4.044 7.09-3.338 9.236 2.157 4.582 2.313 4.626 6.148 1.815 9.837-1.789 2.347-2.035 5.522-3.604 8.035.161.206.33.406.49.613a73.6 73.6 0 0 1 7.682 12.169c-.61-4.766.29-10.508 1.826-14.21 1.748-4.217 5.025-7.769 7.91-11.415 3.466-4.38 10.574-2.468 11.184 3.084l.018.16q-.644.364-1.259.77c-2.34 1.548-1.53 5.174 1.241 5.602l.063.01a30.6 30.6 0 0 1-.807 4.58c3.701 14.316-4.29 19.53-15.702 19.764-.252.129-.497.258-.75.38a73 73 0 0 1 2.765 9.98 74 74 0 0 1 1.28 9.049c.296 3.83.27 7.68-.053 11.503l.02-.136c.82-4.21 3.107-8.144 6.426-10.87 4.946-4.063 11.933-5.559 17.269-8.824 2.568-1.572 5.86.46 5.41 3.437l-.02.142q-1.194.486-2.32 1.118-.642.363-1.258.77c-2.34 1.547-1.531 5.174 1.24 5.602l.064.01.129.019a30.7 30.7 0 0 1-5.639 8.83c-2.314 12.496-12.256 13.682-22.89 10.043h-.006a75 75 0 0 1-5.044 14.726h-18.02c-.065-.2-.123-.407-.181-.607a20.5 20.5 0 0 0 4.986-.297c-1.337-1.64-2.674-3.294-4.011-4.935a1 1 0 0 1-.084-.097c-.678-.84-1.363-1.673-2.041-2.512v-.001a30 30 0 0 1 .878-7.64z" fill="#f2f2f2"/><path d="M0 514.269c0 .66.53 1.19 1.19 1.19h550.29c.66 0 1.19-.53 1.19-1.19s-.53-1.19-1.19-1.19H1.19c-.66 0-1.19.53-1.19 1.19" fill="#ccc"/></svg>