<svg id="_0146_404_page_not_found_1" xmlns="http://www.w3.org/2000/svg" viewBox="0 0 500 500" data-imageid="404-page-not-found-1-66" class="illustrations_image" style="width:144px"><defs><style>.cls-1_404-page-not-found-1-66{fill:#fff}.cls-6_404-page-not-found-1-66{fill:none}.cls-10_404-page-not-found-1-66{fill:#f4a28c}.cls-12_404-page-not-found-1-66{fill:#e6e6e6}.cls-6_404-page-not-found-1-66{opacity:.08}.cls-13_404-page-not-found-1-66{fill:#24285b}.cls-14_404-page-not-found-1-66{fill:#000001}.cls-15_404-page-not-found-1-66{fill:#ffd200}.cls-16_404-page-not-found-1-66{fill:#68e1fd}</style></defs><g id="bg_404-page-not-found-1-66"><path class="cls-12_404-page-not-found-1-66" d="M96.84 209.61c-39.29 7.63-67.06 44.93-62.48 86 2.43 21.79 12.28 41.01 37.6 46.57 67.2 14.75 320.84 70.29 370.68-25.94 38.85-75.01 15.7-126.93-20.39-159.43s-110.85-25.75-172.64-3.51c-46.05 16.57-80.21 42.24-152.77 56.32Z" style="fill:none;opacity:.3"/><ellipse class="cls-14_404-page-not-found-1-66" cx="252.75" cy="398.41" rx="228.74" ry="16.91" style="fill:none;opacity:.03"/><path class="cls-12_404-page-not-found-1-66" d="M438.94 154.97c0-5.3-4.3-9.61-9.61-9.61-.53 0-1.04.05-1.54.14-2.19-4.06-6.47-6.82-11.4-6.82-.16 0-.32.02-.47.02.3-1.19.47-2.44.47-3.73 0-8.49-6.88-15.37-15.37-15.37s-15.37 6.88-15.37 15.37c0 1.29.18 2.53.47 3.73-.16 0-.31-.02-.47-.02-7.15 0-12.95 5.8-12.95 12.95s5.8 12.95 12.95 12.95h44.94v-.09a9.59 9.59 0 0 0 8.35-9.52M284.64 79.2c0-4.55-3.69-8.24-8.24-8.24-.45 0-.89.05-1.32.12a11.1 11.1 0 0 0-9.78-5.85c-.14 0-.27.02-.41.02.26-1.02.41-2.09.41-3.19 0-7.28-5.9-13.18-13.18-13.18s-13.18 5.9-13.18 13.18c0 1.1.15 2.17.41 3.19-.14 0-.27-.02-.41-.02-6.13 0-11.1 4.97-11.1 11.1s4.97 11.1 11.1 11.1h38.54v-.08a8.22 8.22 0 0 0 7.16-8.16ZM90.94 237.74c0-4.55-3.69-8.24-8.24-8.24-.45 0-.89.05-1.32.12a11.1 11.1 0 0 0-9.78-5.85c-.14 0-.27.02-.41.02.26-1.02.41-2.09.41-3.19 0-7.28-5.9-13.18-13.18-13.18s-13.18 5.9-13.18 13.18c0 1.1.15 2.17.41 3.19-.14 0-.27-.02-.41-.02-6.13 0-11.1 4.97-11.1 11.1s4.97 11.1 11.1 11.1h38.54v-.08a8.22 8.22 0 0 0 7.16-8.16Z"/></g><g id="sun_404-page-not-found-1-66"><circle class="cls-15_404-page-not-found-1-66" cx="132.6" cy="103.97" r="32.36"/><circle class="cls-15_404-page-not-found-1-66" cx="132.6" cy="103.97" r="61.7" style="fill:none;opacity:.15"/></g><g id="_404_404-page-not-found-1-66"><circle class="cls-13_404-page-not-found-1-66" cx="249.97" cy="315.23" r="82.41"/><circle class="cls-1_404-page-not-found-1-66" cx="249.97" cy="315.23" r="51.88"/><path class="cls-16_404-page-not-found-1-66 targetColor" d="M150.48 334.88c5.46 0 7.42 1.96 7.42 7.42v9.38c0 5.46-1.53 7.42-7.42 7.42h-15.06v28.59c0 5.46-1.96 7.42-7.42 7.42h-10.69c-5.46 0-7.42-1.96-7.42-7.42V359.1H37.88c-5.46 0-7.42-1.96-7.42-7.42v-7.86c0-3.71.87-6.55 2.62-8.95l72.45-89.91c2.84-3.49 6.33-5.24 10.47-5.24h12c5.45 0 7.42 1.53 7.42 7.42v87.72h15.06Zm-40.59-58.48-47.35 58.48h47.35zm352.24 58.48c5.46 0 7.42 1.96 7.42 7.42v9.38c0 5.46-1.53 7.42-7.42 7.42h-15.06v28.59c0 5.46-1.96 7.42-7.42 7.42h-10.69c-5.46 0-7.42-1.96-7.42-7.42V359.1h-72.01c-5.46 0-7.42-1.96-7.42-7.42v-7.86c0-3.71.87-6.55 2.62-8.95l72.45-89.91c2.84-3.49 6.33-5.24 10.47-5.24h12c5.45 0 7.42 1.53 7.42 7.42v87.72h15.06Zm-40.59-58.48-47.35 58.48h47.35z" style="fill:#ff5733"/><g style="fill:none;opacity:.58"><path class="cls-16_404-page-not-found-1-66 targetColor" d="M429.81 222.19s-13.71-3.75-16.7-16.51c0 0 21.25-4.29 21.85 17.64l-5.16-1.13Z" style="fill:#ff5733"/></g><g style="fill:none;opacity:.73"><path class="cls-16_404-page-not-found-1-66 targetColor" d="M431.49 220.83s-9.58-15.15-1.15-29.31c0 0 16.16 10.26 8.98 29.34z" style="fill:#ff5733"/></g><path class="cls-16_404-page-not-found-1-66 targetColor" d="M433.96 220.84s5.06-16 20.36-19.03c0 0 2.87 10.39-9.91 19.07l-10.46-.04Z" style="fill:#ff5733"/><path class="cls-13_404-page-not-found-1-66" d="m424.02 220.48 2.77 19.02 17.51.07 2.58-19z"/><path class="cls-10_404-page-not-found-1-66" d="M259.94 207s2.26 10.89 1.28 18.42c-.4 3.06-3.25 5.24-6.3 4.8-3.79-.55-8.75-2.39-10.67-8.08l-4.44-9.25s-2.58-5.89 3.11-11.11c5.69-5.21 15.97-1.48 17.02 5.22"/><path class="cls-10_404-page-not-found-1-66" d="m240.61 214.57-1.44 36.4 20.12-.64-7.03-26.23z"/><path class="cls-13_404-page-not-found-1-66" d="M257.26 207.79c-1.92.33-5.46.74-10.27.42 0 0 4.02 4.4 1.2 10.1s-8.7 4.06-8.7 4.06l-1.5-14.2c-.57-4.13 1.15-8.24 4.51-10.7 1.37-1 2.9-2.02 4.46-2.87 3.89-2.12 10.19-.11 13.53-3.3 1.46-1.4 3.9-.71 4.43 1.24 1.15 4.24 1.18 11.12-4.37 14.17-1.02.56-2.14.88-3.28 1.07Z"/><path class="cls-10_404-page-not-found-1-66" d="M249.33 217.84s-.59-4.24-3.74-3.53-2.34 6.84 2.06 6.9l1.68-3.36Zm11.68-3.91 3.58 3.89c.88.96.47 2.51-.78 2.9l-4.13 1.3 1.32-8.09Z"/><g style="fill:none;opacity:.31"><path d="M254.04 229.78s-3.77-.31-6.92-3.09c0 0 1.07 6.58 9.11 12.25l-2.19-9.17Z" style="fill:#ce8172"/></g><path class="cls-16_404-page-not-found-1-66 targetColor" d="m239.17 250.97 20.12-.64s31.59-5.37 42.56 20.4-3.1 62.19-3.1 62.19-11.39 38.45-59.52 34.18c0 0-40.05-2.32-44.57-57.21-.2-2.39-.59-4.77-1.1-7.11-1.86-8.59-2.93-34.64 45.61-51.81" style="fill:#ff5733"/><g class="cls-6_404-page-not-found-1-66"><path class="cls-14_404-page-not-found-1-66" d="M212.25 285.19s10.73 1.16 25.62 26.11c14.9 24.95 44.14 15.81 60.63-2.65l-30.66 40.48-34.27-2.74-18.64-49.62-2.69-11.58Z"/></g><path class="cls-15_404-page-not-found-1-66" d="m323.823 228.242 5.888-.786 2.29 17.137-5.888.787z"/><g class="cls-6_404-page-not-found-1-66"><path class="cls-14_404-page-not-found-1-66" d="m323.823 228.242 5.888-.786 2.29 17.137-5.888.787z"/></g><path class="cls-13_404-page-not-found-1-66" d="m323.974 240.822 9.06-1.21 2.942 22.024-9.06 1.21z"/><path class="cls-15_404-page-not-found-1-66" d="M321.4 191.96c-10.67 1.42-18.16 11.23-16.73 21.89 1.42 10.67 11.23 18.16 21.89 16.73 10.67-1.42 18.16-11.23 16.73-21.89-1.42-10.67-11.23-18.16-21.89-16.73m4.4 32.95c-7.53 1.01-14.46-4.29-15.46-11.82-1.01-7.53 4.29-14.46 11.82-15.46 7.53-1.01 14.46 4.29 15.46 11.82 1.01 7.53-4.29 14.46-11.82 15.46"/><circle class="cls-1_404-page-not-found-1-66" cx="324.02" cy="211.34" r="13.84"/><path class="cls-16_404-page-not-found-1-66 targetColor" d="M194.14 287.88c2.15-8.5 13.49-10.15 18.11-2.69 5.76 9.31 13.32 23.02 19.41 39.27 11.51 30.7 67.98 10.46 88.82-61.11l11.89 7.38s-16.41 92.96-82.41 96.37c0 0-41.19 8.36-53.7-42.2 0 0-3.14-9.53-3.42-14.91l-.88-6.06s-.48-6.59 2.13-15.89c0 0 .01-.06.04-.17Z" style="fill:#ff5733"/><path class="cls-1_404-page-not-found-1-66" d="M194.14 287.88c2.15-8.5 13.49-10.15 18.11-2.69 5.76 9.31 13.32 23.02 19.41 39.27 11.51 30.7 67.98 10.46 88.82-61.11l11.89 7.38s-16.41 92.96-82.41 96.37c0 0-41.19 8.36-53.7-42.2 0 0-3.14-9.53-3.42-14.91l-.88-6.06s-.48-6.59 2.13-15.89c0 0 .01-.06.04-.17Z" style="opacity:.39;fill:none"/><path class="cls-10_404-page-not-found-1-66" d="M323.39 265.15s1.21-15.31 7.51-15.29c6.3.03 21.15 11.37-1.76 18.86z"/></g></svg>