<?xml version="1.0" encoding="UTF-8" standalone="no"?>
<svg
   xml:space="preserve"
   width="560"
   height="140"
   data-id="lg_VRKKanKb8gkzV8sLrP"
   data-version="1"
   viewBox="0 0 560 140"
   version="1.1"
   id="svg32"
   sodipodi:docname="logo-no-background.svg"
   inkscape:version="1.2.1 (9c6d41e410, 2022-07-14)"
   xmlns:inkscape="http://www.inkscape.org/namespaces/inkscape"
   xmlns:sodipodi="http://sodipodi.sourceforge.net/DTD/sodipodi-0.dtd"
   xmlns="http://www.w3.org/2000/svg"
   xmlns:svg="http://www.w3.org/2000/svg"><defs
     id="defs36" /><sodipodi:namedview
     id="namedview34"
     pagecolor="#ffffff"
     bordercolor="#000000"
     borderopacity="0.25"
     inkscape:showpageshadow="2"
     inkscape:pageopacity="0.0"
     inkscape:pagecheckerboard="0"
     inkscape:deskcolor="#d1d1d1"
     showgrid="false"
     inkscape:zoom="0.90866667"
     inkscape:cx="279.53045"
     inkscape:cy="70.432869"
     inkscape:window-width="1920"
     inkscape:window-height="1046"
     inkscape:window-x="-11"
     inkscape:window-y="-11"
     inkscape:window-maximized="1"
     inkscape:current-layer="svg32" /><g
     data-padding="20"
     id="g30"
     transform="translate(-470)"><g
       transform="matrix(0.96429,0,0,0.96429,10,2.5)"
       id="g26"><rect
         width="376.004"
         height="111.87"
         x="179.15199"
         y="-384.33099"
         fill="none"
         rx="0"
         ry="0"
         transform="translate(492.5,407.82)"
         id="rect20" /><path
         fill="#ffc300"
         d="m 726.084,59.334 q 0,2.47 -0.87,5.01 -0.87,2.53 -2.49,4.59 -1.62,2.05 -3.94,3.36 -2.32,1.3 -5.27,1.3 -2.61,0 -4.47,-0.89 -1.86,-0.9 -3.04,-2.39 -1.19,-1.5 -1.77,-3.39 -0.58,-1.88 -0.58,-3.91 0,-2.03 0.51,-3.94 0.51,-1.91 1.57,-3.41 0.29,1.01 0.77,1.57 0.49,0.56 1.02,0.8 0.58,0.29 1.26,0.34 1.54,0 2.19,-0.83 0.66,-0.82 0.66,-1.88 0,-0.48 -0.2,-0.99 -0.19,-0.51 -0.6,-0.94 -0.41,-0.44 -1.09,-0.73 -0.67,-0.29 -1.64,-0.29 -0.53,0 -1.52,0.15 -1,0.14 -2.2,0.74 -1.21,0.61 -2.47,1.82 -1.26,1.21 -2.3,3.28 -1.03,2.08 -1.69,5.18 -0.65,3.09 -0.65,7.54 0,3.04 0.6,5.29 0.61,2.25 1.58,3.84 0.96,1.6 2.22,2.61 1.26,1.02 2.56,1.6 1.31,0.58 2.54,0.8 1.23,0.21 2.2,0.21 1.26,0 3.16,-0.45 1.91,-0.46 3.8,-1.67 1.88,-1.21 3.41,-3.34 1.52,-2.12 2.1,-5.51 1.69,2.37 2.59,5.66 0.89,3.28 0.89,6.91 0,4.93 -1.76,9.55 -1.77,4.61 -5.03,8.19 -3.26,3.58 -7.9,5.73 -4.65,2.15 -10.35,2.15 -4.21,0 -7.78,-1.33 -3.58,-1.33 -6.53,-3.7 -2.95,-2.37 -5.17,-5.58 -2.22,-3.22 -3.77,-6.99 -1.55,-3.77 -2.32,-7.95 -0.77,-4.18 -0.77,-8.48 0,-4.74 1.01,-9.55 1.02,-4.81 2.92,-9.26 1.91,-4.44 4.65,-8.33 2.73,-3.9 6.21,-6.77 3.48,-2.88 7.63,-4.55 4.16,-1.66 8.85,-1.66 4.26,0 7.49,0.99 3.24,0.99 5.59,2.66 2.34,1.66 3.94,3.79 1.59,2.13 2.53,4.4 0.95,2.27 1.33,4.52 0.39,2.25 0.39,4.13 m 49.59,22.96 q 0,2.81 -0.44,6.17 -0.43,3.36 -1.45,6.77 -1.01,3.4 -2.75,6.62 -1.74,3.21 -4.33,5.68 -2.59,2.46 -6.16,3.96 -3.58,1.5 -8.32,1.5 -4.73,0 -8.29,-1.4 -3.55,-1.4 -6.09,-3.75 -2.54,-2.34 -4.18,-5.41 -1.64,-3.07 -2.61,-6.46 -0.97,-3.38 -1.33,-6.84 -0.36,-3.45 -0.36,-6.55 0,-5.46 1.45,-10.7 1.45,-5.25 4.42,-9.36 2.97,-4.11 7.45,-6.62 4.47,-2.51 10.51,-2.51 4.06,0 7.3,1.23 3.24,1.23 5.75,3.36 2.51,2.13 4.28,4.98 1.76,2.85 2.92,6.04 1.16,3.19 1.7,6.62 0.53,3.44 0.53,6.67 m -16.82,1.6 q 0,-1.11 -0.08,-2.78 -0.07,-1.67 -0.31,-3.5 -0.24,-1.84 -0.65,-3.68 -0.42,-1.84 -1.09,-3.29 -0.68,-1.45 -1.67,-2.36 -0.99,-0.92 -2.34,-0.92 -1.31,0 -2.28,0.87 -0.96,0.87 -1.66,2.27 -0.7,1.4 -1.16,3.17 -0.46,1.76 -0.73,3.52 -0.26,1.77 -0.39,3.39 -0.12,1.62 -0.12,2.73 0,1.59 0.25,3.87 0.24,2.27 0.91,4.35 0.68,2.08 1.86,3.55 1.19,1.47 3.12,1.47 1.84,0 3.07,-1.35 1.23,-1.35 1.96,-3.31 0.73,-1.96 1.02,-4.13 0.29,-2.18 0.29,-3.87 m 66.71,-1.6 q 0,2.81 -0.43,6.17 -0.44,3.36 -1.45,6.77 -1.02,3.4 -2.76,6.62 -1.74,3.21 -4.32,5.68 -2.59,2.46 -6.17,3.96 -3.57,1.5 -8.31,1.5 -4.74,0 -8.29,-1.4 -3.55,-1.4 -6.09,-3.75 -2.54,-2.34 -4.18,-5.41 -1.65,-3.07 -2.61,-6.46 -0.97,-3.38 -1.33,-6.84 -0.37,-3.45 -0.37,-6.55 0,-5.46 1.45,-10.7 1.45,-5.25 4.43,-9.36 2.97,-4.11 7.44,-6.62 4.47,-2.51 10.52,-2.51 4.06,0 7.3,1.23 3.23,1.23 5.75,3.36 2.51,2.13 4.28,4.98 1.76,2.85 2.92,6.04 1.16,3.19 1.69,6.62 0.53,3.44 0.53,6.67 m -16.82,1.6 q 0,-1.11 -0.07,-2.78 -0.07,-1.67 -0.31,-3.5 -0.25,-1.84 -0.66,-3.68 -0.41,-1.84 -1.09,-3.29 -0.67,-1.45 -1.66,-2.36 -0.99,-0.92 -2.35,-0.92 -1.3,0 -2.27,0.87 -0.97,0.87 -1.67,2.27 -0.7,1.4 -1.16,3.17 -0.46,1.76 -0.72,3.52 -0.27,1.77 -0.39,3.39 -0.12,1.62 -0.12,2.73 0,1.59 0.24,3.87 0.24,2.27 0.92,4.35 0.68,2.08 1.86,3.55 1.19,1.47 3.12,1.47 1.84,0 3.07,-1.35 1.23,-1.35 1.96,-3.31 0.72,-1.96 1.01,-4.13 0.29,-2.18 0.29,-3.87 m 66.89,28.04 q -5.46,-0.44 -9.47,-0.44 -3.48,0 -5.87,0.22 -2.4,0.22 -3.9,0.46 -1.74,0.29 -2.8,0.63 0.39,-2.47 0.58,-4.55 0.19,-2.08 0.19,-4.44 0,-4.26 -0.33,-7.09 -0.34,-2.82 -0.97,-4.76 -0.63,-1.93 -1.5,-3.14 -0.87,-1.21 -1.93,-2.18 -0.1,1.75 -0.15,3.46 -0.05,1.72 -0.05,3.51 0,3.62 0.39,7.85 0.39,4.23 1.6,9.84 -1.45,-0.1 -3.29,-0.24 -1.55,-0.1 -3.72,-0.17 -2.18,-0.08 -4.79,-0.08 -2.61,0 -5.53,0.1 -2.93,0.1 -6.07,0.39 0.97,-1.5 1.72,-3.97 0.74,-2.46 1.28,-5.53 0.53,-3.07 0.89,-6.55 0.36,-3.48 0.58,-7.03 0.22,-3.56 0.32,-6.99 0.09,-3.43 0.09,-6.43 0,-4.01 -0.14,-8.22 -0.15,-4.2 -0.39,-8.21 -0.24,-4.02 -0.58,-7.64 -0.34,-3.63 -0.68,-6.55 -0.34,-2.93 -0.7,-4.91 -0.36,-1.98 -0.7,-2.71 3.1,0.29 6.43,0.29 4.21,0 8.34,-0.41 4.13,-0.41 7.9,-1.13 -0.58,1.69 -1.06,4.37 -0.48,2.69 -0.85,5.95 -0.36,3.26 -0.63,6.91 -0.26,3.65 -0.45,7.3 -0.2,3.65 -0.27,7.08 -0.07,3.43 -0.07,6.29 0,1.93 0.05,3.48 0.04,1.54 0.14,2.66 3.34,-4.26 5.17,-8.25 1.84,-3.98 1.84,-7.9 0,-3.72 -1.98,-7.54 1.83,0.19 3.77,0.27 1.93,0.07 3.77,0.07 3.48,0 6.91,-0.27 3.43,-0.26 6.91,-0.94 -1.35,2.03 -2.24,4.52 -0.9,2.49 -1.43,4.81 -0.63,2.66 -1.06,5.41 -0.44,2.66 -1.45,5.13 -0.44,1.06 -1.04,2.15 -0.61,1.09 -1.45,2.12 -0.85,1.04 -1.91,1.94 -1.07,0.89 -2.37,1.52 2.8,1.11 4.28,2.8 1.47,1.7 2.2,3.8 0.72,2.1 1.01,4.59 0.29,2.49 0.73,5.25 0.43,2.27 1.11,4.59 0.58,1.98 1.47,4.28 0.9,2.29 2.15,4.23 m 52.37,-0.44 q -1.5,-0.24 -3.29,-0.31 -1.79,-0.08 -3.72,-0.08 -2.32,0 -4.72,0.13 -2.39,0.12 -4.66,0.31 -2.27,0.19 -4.3,0.44 -2.03,0.24 -3.53,0.43 2.08,-7.01 3.21,-14.99 1.14,-7.97 1.14,-17.69 0,-0.72 -0.03,-1.93 -0.02,-1.21 -0.12,-2.61 -0.09,-1.4 -0.31,-2.83 -0.22,-1.43 -0.63,-2.59 -0.41,-1.16 -1.04,-1.88 -0.63,-0.73 -1.55,-0.73 -1.35,0 -2.63,0.97 -1.28,0.97 -2.27,2.56 -0.99,1.6 -1.6,3.68 -0.6,2.08 -0.6,4.3 0,4.01 0.19,8.14 0.2,4.14 0.63,8.2 0.44,4.06 1.11,7.95 0.68,3.89 1.69,7.37 -0.82,-0.05 -1.93,-0.14 -0.97,-0.05 -2.27,-0.1 -1.31,-0.05 -3,-0.05 -3.14,0 -7.25,0.27 -4.11,0.26 -8.89,0.99 0.58,-2.71 1.01,-6.62 0.44,-3.92 0.73,-8.51 0.29,-4.59 0.46,-9.6 0.16,-5 0.16,-9.88 0,-3.63 -0.09,-7.11 -0.1,-3.48 -0.27,-6.57 -0.17,-3.1 -0.46,-5.71 -0.29,-2.61 -0.67,-4.49 3.91,0.67 7.25,0.94 3.33,0.27 6.04,0.27 1.74,0 3.12,-0.08 1.38,-0.07 2.34,-0.17 1.16,-0.14 2.03,-0.29 -0.29,1.5 -0.55,3.19 -0.27,1.7 -0.51,3.68 1.59,-2.03 3.38,-3.55 1.79,-1.53 3.6,-2.54 1.82,-1.02 3.61,-1.53 1.78,-0.5 3.38,-0.5 3.48,0 6.02,1.42 2.54,1.43 4.2,4.47 1.67,3.05 2.49,7.79 0.82,4.73 0.82,11.36 0,4.54 0.03,9.23 0.02,4.69 0.22,9.18 0.19,4.5 0.67,8.54 0.49,4.03 1.36,7.27 m 26.43,-1.16 q -0.82,-0.05 -1.94,-0.14 -0.96,-0.05 -2.27,-0.1 -1.3,-0.05 -2.99,-0.05 -3.15,0 -7.26,0.27 -4.1,0.26 -8.89,0.99 0.92,-1.84 1.55,-4.62 0.63,-2.78 1.04,-5.94 0.41,-3.17 0.62,-6.41 0.22,-3.24 0.32,-5.94 0.1,-2.71 0.12,-4.6 0.02,-1.88 0.02,-2.37 -0.09,-6.28 -0.43,-11.74 -0.15,-2.32 -0.36,-4.69 -0.22,-2.37 -0.51,-4.47 -0.29,-2.11 -0.65,-3.77 -0.37,-1.67 -0.85,-2.64 3.92,0.68 7.25,0.92 3.34,0.24 6.04,0.24 1.74,0 3.12,-0.07 1.38,-0.07 2.35,-0.17 1.16,-0.1 2.03,-0.24 -0.87,4.35 -1.43,10.49 -0.56,6.14 -0.56,13.15 0,4.01 0.2,8.12 0.19,4.11 0.63,8.19 0.43,4.09 1.13,8.03 0.7,3.94 1.72,7.56 m -22.19,-69.12 q 0,-2.23 0.85,-4.19 0.84,-1.95 2.32,-3.43 1.47,-1.47 3.45,-2.32 1.98,-0.84 4.21,-0.84 2.22,0 4.18,0.84 1.96,0.85 3.43,2.32 1.48,1.48 2.32,3.43 0.85,1.96 0.85,4.19 0,2.22 -0.85,4.2 -0.84,1.98 -2.32,3.46 -1.47,1.47 -3.43,2.32 -1.96,0.84 -4.18,0.84 -2.23,0 -4.21,-0.84 -1.98,-0.85 -3.45,-2.32 -1.48,-1.48 -2.32,-3.46 -0.85,-1.98 -0.85,-4.2 m 62.8,-7.89 q -0.58,3.43 -0.89,6.74 -0.31,3.31 -0.31,6.5 v 1.98 q 0,1.02 0.09,1.99 -1.16,-1.94 -2.9,-2.91 -1.74,-0.96 -3.43,-0.96 -1.16,0 -2.27,0.48 -1.11,0.48 -1.94,1.45 -0.82,0.97 -1.33,2.42 -0.5,1.45 -0.5,3.38 l 12.08,-0.48 q -0.53,2.22 -0.7,4.52 -0.17,2.29 -0.17,4.76 0,1.35 0.05,2.71 0.05,1.35 0.14,2.75 -3.04,-0.38 -5.8,-0.7 -2.75,-0.31 -5.8,-0.31 -0.09,3.48 -0.14,7.08 -0.05,3.6 -0.05,7.18 0,7.64 0.41,15.13 0.41,7.49 1.77,14.6 -5.42,-1.12 -11.27,-1.12 -3.04,0 -6.02,0.29 -2.97,0.29 -5.87,0.83 1.11,-4.79 1.74,-10.3 0.63,-5.51 0.94,-11.21 0.32,-5.71 0.46,-11.32 0.15,-5.6 0.24,-10.53 -1.54,0.09 -3.38,0.26 -1.84,0.17 -3.38,0.41 0.24,-2.12 0.38,-4.13 0.15,-2.01 0.15,-4.09 0,-1.83 -0.1,-3.64 -0.09,-1.82 -0.43,-3.8 l 7.34,0.39 q 0,-5.03 1.29,-9.21 1.28,-4.18 3.84,-7.2 2.56,-3.03 6.4,-4.69 3.85,-1.67 8.97,-1.67 1.64,0 2.88,0.22 1.23,0.21 2.39,0.58 1.16,0.36 2.37,0.77 1.21,0.41 2.75,0.85 m 48.59,21.65 q -0.54,2.03 -0.9,4.88 -0.36,2.86 -0.65,6.14 -0.29,3.29 -0.46,6.87 -0.17,3.58 -0.32,6.96 -0.29,7.98 -0.33,16.82 0,4.93 -0.61,9.72 -0.6,4.78 -1.93,9.06 -1.33,4.28 -3.43,7.93 -2.11,3.65 -5.13,6.28 -3.02,2.64 -7.01,4.14 -3.98,1.49 -9.01,1.49 -4.69,0 -8.12,-0.96 -3.44,-0.97 -5.68,-2.73 -2.25,-1.77 -3.34,-4.23 -1.09,-2.47 -1.09,-5.42 0,-2.95 1.02,-5.34 1.01,-2.39 2.66,-4.03 1.64,-1.65 3.72,-2.54 2.08,-0.9 4.21,-0.9 2.7,0 5.12,1.55 2.42,1.55 3.67,4.88 -0.29,-0.24 -0.65,-0.31 -0.36,-0.07 -0.75,-0.07 -0.53,0 -1.09,0.24 -0.55,0.24 -0.99,0.67 -0.43,0.44 -0.7,0.99 -0.26,0.56 -0.26,1.19 0,0.72 0.29,1.23 0.29,0.51 0.7,0.8 0.41,0.29 0.92,0.41 0.5,0.12 0.94,0.12 0.67,0 1.69,-0.29 1.01,-0.29 2.1,-1.21 1.09,-0.92 2.18,-2.56 1.09,-1.64 1.93,-4.37 0.85,-2.74 1.35,-6.65 0.51,-3.92 0.46,-9.38 -1.25,3.39 -2.63,5.49 -1.38,2.1 -2.9,3.26 -1.52,1.16 -3.19,1.55 -1.67,0.38 -3.55,0.38 -2.37,0 -4.96,-0.84 -2.59,-0.85 -4.74,-3 -2.15,-2.15 -3.55,-5.87 -1.4,-3.72 -1.4,-9.48 0,-0.77 0.02,-1.08 0.03,-0.32 0.03,-0.49 0,-0.17 0.05,-0.41 0.04,-0.24 0.04,-0.94 0,-0.7 0.03,-2.01 0.02,-1.3 0.02,-3.67 0,-2.76 -0.09,-6.24 -0.1,-3.48 -0.42,-6.81 -0.31,-3.34 -0.89,-6.07 -0.58,-2.73 -1.5,-4.04 3.92,0.68 7.37,0.92 3.46,0.24 6.31,0.24 1.89,0 3.41,-0.07 1.52,-0.07 2.63,-0.17 1.26,-0.09 2.28,-0.24 -0.39,0.82 -0.85,3.14 -0.46,2.32 -0.89,5.56 -0.44,3.24 -0.73,7.08 -0.29,3.85 -0.29,7.76 0,2.95 0.44,5.03 0.43,2.08 1.18,3.41 0.75,1.33 1.74,1.96 0.99,0.62 2.15,0.62 1.84,0 2.93,-1.49 1.08,-1.5 1.86,-3.78 -0.1,-2.99 -0.34,-7 -0.24,-4.02 -0.65,-8.37 -0.41,-4.35 -1.07,-8.77 -0.65,-4.42 -1.62,-8.24 1.5,0.53 3.58,0.96 1.79,0.39 4.35,0.66 2.56,0.26 6.04,0.26 4.11,0 9.29,-0.58 M 593.511,0.24 a 20.001,20.001 0 1 0 0,40.002 20.001,20.001 0 1 0 0,-40.002 m -12.927,44.446 h 26.856 v 25.729 h -26.856 z m 21.847,60.409 h -16.964 c -3.068,0 -5.54,-2.504 -5.54,-5.571 V 76.738 h 28.076 v 22.787 a 5.584,5.584 0 0 1 -5.572,5.57 M 584.277,81.09 v 18.467 c 0,0.626 0.533,1.158 1.19,1.158 h 16.964 c 0.658,0 1.19,-0.532 1.19,-1.19 V 81.089 Z"
         id="path22" /><path
         fill="#ffc300"
         d="m 617.394,44.687 h -4.007 v 86.482 h -38.78 l 0.03,-86.482 h -4.945 c -15.087,0 -26.23,12.3 -26.23,27.607 v 31.3 h -23.287 v -31.74 h 5.947 c 2.974,0 5.384,-2.44 5.384,-5.414 V 49.35 A 31.3,31.3 0 0 0 543.65,43.34 8.2,8.2 0 0 0 533.07,30.82 c -2.41,2.003 -8.294,4.07 -16.025,4.07 -7.95,0 -13.96,-2.192 -16.182,-4.195 a 8.2113191,8.2113191 0 0 0 -10.986,12.207 33.2,33.2 0 0 0 14.523,6.917 v 16.59 c 0,3.004 2.41,5.446 5.415,5.446 h 5.947 v 31.644 h -5.07 a 8.451,8.451 0 0 0 0,16.777 h 5.101 v 16.902 a 2.191,2.191 0 1 0 4.382,0 v -16.902 h 31.613 v -0.032 c 4.226,0 8.451,-3.13 8.451,-9.546 V 74.014 h 5.353 v 65.417 h 56.903 V 74.014 h 5.258 v 56.12 c 0,12.834 16.683,12.834 16.652,0 V 72.669 c 0,-14.147 -10.485,-27.982 -27.012,-27.982 M 527.155,66.44 c 0,0.594 -0.47,1.064 -1.064,1.064 h -5.947 V 51.196 q 3.63,-0.187 7.011,-0.845 z m -17.34,1.064 a 1.064,1.064 0 0 1 -1.064,-1.033 V 50.696 q 3.443,0.47 7.042,0.563 v 16.276 z m 9.703,-41.91 h -0.25 c -1.878,-0.406 -5.384,-2.472 -5.134,-7.605 0.157,-2.755 1.878,-4.07 3.287,-5.165 1.252,-0.94 1.94,-1.565 1.972,-2.66 A 6.26,6.26 0 0 0 516.67,4.843 1.3243233,1.3243233 0 0 1 518.11,2.62 c 0.156,0.094 4.07,2.66 3.912,7.637 -0.063,2.41 -1.69,3.662 -2.973,4.664 -1.378,1.033 -2.192,1.722 -2.285,3.193 -0.22,4.194 2.88,4.85 3.036,4.883 a 1.37,1.37 0 0 1 1.033,1.565 1.25,1.25 0 0 1 -1.284,1.032 m 10.392,0 h -0.25 a 5.51,5.51 0 0 1 -4.383,-6.04 c 0.126,-2.254 1.69,-3.35 2.817,-4.132 1.033,-0.72 1.44,-1.096 1.472,-1.69 0.062,-2.41 -2.035,-3.662 -2.066,-3.694 a 1.25,1.25 0 0 1 -0.47,-1.784 c 0.376,-0.626 1.19,-0.845 1.816,-0.47 0.125,0.095 3.443,2.066 3.35,6.01 -0.064,2.003 -1.472,2.974 -2.599,3.756 -1.033,0.75 -1.628,1.22 -1.69,2.129 -0.157,2.817 2.128,3.286 2.222,3.317 0.72,0.126 1.19,0.814 1.064,1.534 a 1.25,1.25 0 0 1 -1.283,1.064 m -21.847,0 h -0.25 a 5.51,5.51 0 0 1 -4.383,-6.04 c 0.125,-2.254 1.69,-3.35 2.817,-4.132 1.033,-0.72 1.44,-1.096 1.44,-1.69 0.093,-2.41 -2.035,-3.694 -2.035,-3.694 a 1.25,1.25 0 0 1 -0.47,-1.784 c 0.376,-0.626 1.16,-0.845 1.785,-0.47 0.156,0.095 3.443,2.066 3.35,6.01 -0.064,2.003 -1.44,2.974 -2.568,3.756 -1.064,0.75 -1.659,1.22 -1.69,2.129 -0.157,2.817 2.128,3.286 2.222,3.317 a 1.315,1.315 0 0 1 -0.25,2.598"
         id="path24" /></g><path
       fill="transparent"
       stroke="transparent"
       d="m 470,0 h 560 V 140 H 470 Z"
       id="path28" /></g></svg>
