<svg xml:space="preserve" width="560" height="140" data-id="lg_VRKKanKb8gkzV8sLrP" data-version="1" viewBox="0 0 560 140" xmlns="http://www.w3.org/2000/svg">
  <g data-padding="20">
    <g transform="translate(-460 2.5)scale(.96429)">
      <rect width="376.004" height="111.87" x="179.152" y="-384.331" fill="none" rx="0" ry="0" transform="translate(492.5 407.82)"/>
      <path fill="#ffc300" d="M726.084 59.334q0 2.47-.87 5.01-.87 2.53-2.49 4.59-1.62 2.05-3.94 3.36-2.32 1.3-5.27 1.3-2.61 0-4.47-.89-1.86-.9-3.04-2.39-1.19-1.5-1.77-3.39-.58-1.88-.58-3.91t.51-3.94 1.57-3.41q.29 1.01.77 1.57.49.56 1.02.8.58.29 1.26.34 1.54 0 2.19-.83.66-.82.66-1.88 0-.48-.2-.99-.19-.51-.6-.94-.41-.44-1.09-.73-.67-.29-1.64-.29-.53 0-1.52.15-1 .14-2.2.74-1.21.61-2.47 1.82t-2.3 3.28q-1.03 2.08-1.69 5.18-.65 3.09-.65 7.54 0 3.04.6 5.29.61 2.25 1.58 3.84.96 1.6 2.22 2.61 1.26 1.02 2.56 1.6 1.31.58 2.54.8 1.23.21 2.2.21 1.26 0 3.16-.45 1.91-.46 3.8-1.67 1.88-1.21 3.41-3.34 1.52-2.12 2.1-5.51 1.69 2.37 2.59 5.66.89 3.28.89 6.91 0 4.93-1.76 9.55-1.77 4.61-5.03 8.19t-7.9 5.73q-4.65 2.15-10.35 2.15-4.21 0-7.78-1.33-3.58-1.33-6.53-3.7t-5.17-5.58q-2.22-3.22-3.77-6.99t-2.32-7.95-.77-8.48q0-4.74 1.01-9.55 1.02-4.81 2.92-9.26 1.91-4.44 4.65-8.33 2.73-3.9 6.21-6.77 3.48-2.88 7.63-4.55 4.16-1.66 8.85-1.66 4.26 0 7.49.99 3.24.99 5.59 2.66 2.34 1.66 3.94 3.79 1.59 2.13 2.53 4.4.95 2.27 1.33 4.52.39 2.25.39 4.13m49.59 22.96q0 2.81-.44 6.17-.43 3.36-1.45 6.77-1.01 3.4-2.75 6.62-1.74 3.21-4.33 5.68-2.59 2.46-6.16 3.96-3.58 1.5-8.32 1.5-4.73 0-8.29-1.4-3.55-1.4-6.09-3.75-2.54-2.34-4.18-5.41t-2.61-6.46q-.97-3.38-1.33-6.84-.36-3.45-.36-6.55 0-5.46 1.45-10.7 1.45-5.25 4.42-9.36t7.45-6.62q4.47-2.51 10.51-2.51 4.06 0 7.3 1.23t5.75 3.36 4.28 4.98q1.76 2.85 2.92 6.04t1.7 6.62q.53 3.44.53 6.67m-16.82 1.6q0-1.11-.08-2.78-.07-1.67-.31-3.5-.24-1.84-.65-3.68-.42-1.84-1.09-3.29-.68-1.45-1.67-2.36-.99-.92-2.34-.92-1.31 0-2.28.87-.96.87-1.66 2.27t-1.16 3.17q-.46 1.76-.73 3.52-.26 1.77-.39 3.39-.12 1.62-.12 2.73 0 1.59.25 3.87.24 2.27.91 4.35.68 2.08 1.86 3.55 1.19 1.47 3.12 1.47 1.84 0 3.07-1.35t1.96-3.31 1.02-4.13q.29-2.18.29-3.87m66.71-1.6q0 2.81-.43 6.17-.44 3.36-1.45 6.77-1.02 3.4-2.76 6.62-1.74 3.21-4.32 5.68-2.59 2.46-6.17 3.96-3.57 1.5-8.31 1.5t-8.29-1.4-6.09-3.75q-2.54-2.34-4.18-5.41-1.65-3.07-2.61-6.46-.97-3.38-1.33-6.84-.37-3.45-.37-6.55 0-5.46 1.45-10.7 1.45-5.25 4.43-9.36 2.97-4.11 7.44-6.62t10.52-2.51q4.06 0 7.3 1.23 3.23 1.23 5.75 3.36 2.51 2.13 4.28 4.98 1.76 2.85 2.92 6.04t1.69 6.62q.53 3.44.53 6.67m-16.82 1.6q0-1.11-.07-2.78t-.31-3.5q-.25-1.84-.66-3.68t-1.09-3.29q-.67-1.45-1.66-2.36-.99-.92-2.35-.92-1.3 0-2.27.87t-1.67 2.27-1.16 3.17q-.46 1.76-.72 3.52-.27 1.77-.39 3.39t-.12 2.73q0 1.59.24 3.87.24 2.27.92 4.35t1.86 3.55q1.19 1.47 3.12 1.47 1.84 0 3.07-1.35t1.96-3.31q.72-1.96 1.01-4.13.29-2.18.29-3.87m66.89 28.04q-5.46-.44-9.47-.44-3.48 0-5.87.22-2.4.22-3.9.46-1.74.29-2.8.63.39-2.47.58-4.55t.19-4.44q0-4.26-.33-7.09-.34-2.82-.97-4.76-.63-1.93-1.5-3.14t-1.93-2.18q-.1 1.75-.15 3.46-.05 1.72-.05 3.51 0 3.62.39 7.85t1.6 9.84q-1.45-.1-3.29-.24-1.55-.1-3.72-.17-2.18-.08-4.79-.08t-5.53.1q-2.93.1-6.07.39.97-1.5 1.72-3.97.74-2.46 1.28-5.53.53-3.07.89-6.55t.58-7.03q.22-3.56.32-6.99.09-3.43.09-6.43 0-4.01-.14-8.22-.15-4.2-.39-8.21-.24-4.02-.58-7.64-.34-3.63-.68-6.55-.34-2.93-.7-4.91t-.7-2.71q3.1.29 6.43.29 4.21 0 8.34-.41t7.9-1.13q-.58 1.69-1.06 4.37-.48 2.69-.85 5.95-.36 3.26-.63 6.91-.26 3.65-.45 7.3-.2 3.65-.27 7.08t-.07 6.29q0 1.93.05 3.48.04 1.54.14 2.66 3.34-4.26 5.17-8.25 1.84-3.98 1.84-7.9 0-3.72-1.98-7.54 1.83.19 3.77.27 1.93.07 3.77.07 3.48 0 6.91-.27 3.43-.26 6.91-.94-1.35 2.03-2.24 4.52-.9 2.49-1.43 4.81-.63 2.66-1.06 5.41-.44 2.66-1.45 5.13-.44 1.06-1.04 2.15-.61 1.09-1.45 2.12-.85 1.04-1.91 1.94-1.07.89-2.37 1.52 2.8 1.11 4.28 2.8 1.47 1.7 2.2 3.8.72 2.1 1.01 4.59t.73 5.25q.43 2.27 1.11 4.59.58 1.98 1.47 4.28.9 2.29 2.15 4.23m52.37-.44q-1.5-.24-3.29-.31-1.79-.08-3.72-.08-2.32 0-4.72.13-2.39.12-4.66.31t-4.3.44q-2.03.24-3.53.43 2.08-7.01 3.21-14.99 1.14-7.97 1.14-17.69 0-.72-.03-1.93-.02-1.21-.12-2.61-.09-1.4-.31-2.83t-.63-2.59-1.04-1.88q-.63-.73-1.55-.73-1.35 0-2.63.97t-2.27 2.56q-.99 1.6-1.6 3.68-.6 2.08-.6 4.3 0 4.01.19 8.14.2 4.14.63 8.2.44 4.06 1.11 7.95.68 3.89 1.69 7.37-.82-.05-1.93-.14-.97-.05-2.27-.1-1.31-.05-3-.05-3.14 0-7.25.27-4.11.26-8.89.99.58-2.71 1.01-6.62.44-3.92.73-8.51t.46-9.6q.16-5 .16-9.88 0-3.63-.09-7.11-.1-3.48-.27-6.57-.17-3.1-.46-5.71t-.67-4.49q3.91.67 7.25.94 3.33.27 6.04.27 1.74 0 3.12-.08 1.38-.07 2.34-.17 1.16-.14 2.03-.29-.29 1.5-.55 3.19-.27 1.7-.51 3.68 1.59-2.03 3.38-3.55 1.79-1.53 3.6-2.54 1.82-1.02 3.61-1.53 1.78-.5 3.38-.5 3.48 0 6.02 1.42 2.54 1.43 4.2 4.47 1.67 3.05 2.49 7.79.82 4.73.82 11.36 0 4.54.03 9.23.02 4.69.22 9.18.19 4.5.67 8.54.49 4.03 1.36 7.27m26.43-1.16q-.82-.05-1.94-.14-.96-.05-2.27-.1-1.3-.05-2.99-.05-3.15 0-7.26.27-4.1.26-8.89.99.92-1.84 1.55-4.62t1.04-5.94q.41-3.17.62-6.41.22-3.24.32-5.94.1-2.71.12-4.6.02-1.88.02-2.37-.09-6.28-.43-11.74-.15-2.32-.36-4.69-.22-2.37-.51-4.47-.29-2.11-.65-3.77-.37-1.67-.85-2.64 3.92.68 7.25.92 3.34.24 6.04.24 1.74 0 3.12-.07t2.35-.17q1.16-.1 2.03-.24-.87 4.35-1.43 10.49t-.56 13.15q0 4.01.2 8.12.19 4.11.63 8.19.43 4.09 1.13 8.03t1.72 7.56m-22.19-69.12q0-2.23.85-4.19.84-1.95 2.32-3.43 1.47-1.47 3.45-2.32 1.98-.84 4.21-.84 2.22 0 4.18.84 1.96.85 3.43 2.32 1.48 1.48 2.32 3.43.85 1.96.85 4.19 0 2.22-.85 4.2-.84 1.98-2.32 3.46-1.47 1.47-3.43 2.32-1.96.84-4.18.84-2.23 0-4.21-.84-1.98-.85-3.45-2.32-1.48-1.48-2.32-3.46-.85-1.98-.85-4.2m62.8-7.89q-.58 3.43-.89 6.74t-.31 6.5v1.98q0 1.02.09 1.99-1.16-1.94-2.9-2.91-1.74-.96-3.43-.96-1.16 0-2.27.48t-1.94 1.45q-.82.97-1.33 2.42-.5 1.45-.5 3.38l12.08-.48q-.53 2.22-.7 4.52-.17 2.29-.17 4.76 0 1.35.05 2.71.05 1.35.14 2.75-3.04-.38-5.8-.7-2.75-.31-5.8-.31-.09 3.48-.14 7.08t-.05 7.18q0 7.64.41 15.13t1.77 14.6q-5.42-1.12-11.27-1.12-3.04 0-6.02.29-2.97.29-5.87.83 1.11-4.79 1.74-10.3t.94-11.21q.32-5.71.46-11.32.15-5.6.24-10.53-1.54.09-3.38.26t-3.38.41q.24-2.12.38-4.13.15-2.01.15-4.09 0-1.83-.1-3.64-.09-1.82-.43-3.8l7.34.39q0-5.03 1.29-9.21 1.28-4.18 3.84-7.2 2.56-3.03 6.4-4.69 3.85-1.67 8.97-1.67 1.64 0 2.88.22 1.23.21 2.39.58 1.16.36 2.37.77t2.75.85m48.59 21.65q-.54 2.03-.9 4.88-.36 2.86-.65 6.14-.29 3.29-.46 6.87t-.32 6.96q-.29 7.98-.33 16.82 0 4.93-.61 9.72-.6 4.78-1.93 9.06t-3.43 7.93q-2.11 3.65-5.13 6.28-3.02 2.64-7.01 4.14-3.98 1.49-9.01 1.49-4.69 0-8.12-.96-3.44-.97-5.68-2.73-2.25-1.77-3.34-4.23-1.09-2.47-1.09-5.42t1.02-5.34q1.01-2.39 2.66-4.03 1.64-1.65 3.72-2.54 2.08-.9 4.21-.9 2.7 0 5.12 1.55t3.67 4.88q-.29-.24-.65-.31t-.75-.07q-.53 0-1.09.24-.55.24-.99.67-.43.44-.7.99-.26.56-.26 1.19 0 .72.29 1.23t.7.8.92.41q.5.12.94.12.67 0 1.69-.29 1.01-.29 2.1-1.21t2.18-2.56 1.93-4.37q.85-2.74 1.35-6.65.51-3.92.46-9.38-1.25 3.39-2.63 5.49t-2.9 3.26-3.19 1.55q-1.67.38-3.55.38-2.37 0-4.96-.84-2.59-.85-4.74-3t-3.55-5.87-1.4-9.48q0-.77.02-1.08.03-.32.03-.49t.05-.41q.04-.24.04-.94t.03-2.01q.02-1.3.02-3.67 0-2.76-.09-6.24-.1-3.48-.42-6.81-.31-3.34-.89-6.07t-1.5-4.04q3.92.68 7.37.92 3.46.24 6.31.24 1.89 0 3.41-.07t2.63-.17q1.26-.09 2.28-.24-.39.82-.85 3.14t-.89 5.56q-.44 3.24-.73 7.08-.29 3.85-.29 7.76 0 2.95.44 5.03.43 2.08 1.18 3.41t1.74 1.96q.99.62 2.15.62 1.84 0 2.93-1.49 1.08-1.5 1.86-3.78-.1-2.99-.34-7-.24-4.02-.65-8.37t-1.07-8.77q-.65-4.42-1.62-8.24 1.5.53 3.58.96 1.79.39 4.35.66 2.56.26 6.04.26 4.11 0 9.29-.58M593.511.24a20.001 20.001 0 1 0 0 40.002 20.001 20.001 0 1 0 0-40.002m-12.927 44.446h26.856v25.729h-26.856zm21.847 60.409h-16.964c-3.068 0-5.54-2.504-5.54-5.571V76.738h28.076v22.787a5.584 5.584 0 0 1-5.572 5.57M584.277 81.09v18.467c0 .626.533 1.158 1.19 1.158h16.964c.658 0 1.19-.532 1.19-1.19V81.089Z"/>
      <path fill="#ffc300" d="M617.394 44.687h-4.007v86.482h-38.78l.03-86.482h-4.945c-15.087 0-26.23 12.3-26.23 27.607v31.3h-23.287v-31.74h5.947c2.974 0 5.384-2.44 5.384-5.414V49.35a31.3 31.3 0 0 0 12.144-6.01 8.2 8.2 0 0 0-10.58-12.52c-2.41 2.003-8.294 4.07-16.025 4.07-7.95 0-13.96-2.192-16.182-4.195a8.211 8.211 0 0 0-10.986 12.207 33.2 33.2 0 0 0 14.523 6.917v16.59c0 3.004 2.41 5.446 5.415 5.446h5.947v31.644h-5.07a8.451 8.451 0 0 0 0 16.777h5.101v16.902a2.191 2.191 0 1 0 4.382 0v-16.902h31.613v-.032c4.226 0 8.451-3.13 8.451-9.546V74.014h5.353v65.417h56.903V74.014h5.258v56.12c0 12.834 16.683 12.834 16.652 0V72.669c0-14.147-10.485-27.982-27.012-27.982M527.155 66.44c0 .594-.47 1.064-1.064 1.064h-5.947V51.196q3.63-.187 7.011-.845zm-17.34 1.064a1.064 1.064 0 0 1-1.064-1.033V50.696q3.443.47 7.042.563v16.276zm9.703-41.91h-.25c-1.878-.406-5.384-2.472-5.134-7.605.157-2.755 1.878-4.07 3.287-5.165 1.252-.94 1.94-1.565 1.972-2.66a6.26 6.26 0 0 0-2.723-5.321 1.324 1.324 0 0 1 1.44-2.223c.156.094 4.07 2.66 3.912 7.637-.063 2.41-1.69 3.662-2.973 4.664-1.378 1.033-2.192 1.722-2.285 3.193-.22 4.194 2.88 4.85 3.036 4.883a1.37 1.37 0 0 1 1.033 1.565 1.25 1.25 0 0 1-1.284 1.032m10.392 0h-.25a5.51 5.51 0 0 1-4.383-6.04c.126-2.254 1.69-3.35 2.817-4.132 1.033-.72 1.44-1.096 1.472-1.69.062-2.41-2.035-3.662-2.066-3.694a1.25 1.25 0 0 1-.47-1.784c.376-.626 1.19-.845 1.816-.47.125.095 3.443 2.066 3.35 6.01-.064 2.003-1.472 2.974-2.599 3.756-1.033.75-1.628 1.22-1.69 2.129-.157 2.817 2.128 3.286 2.222 3.317.72.126 1.19.814 1.064 1.534a1.25 1.25 0 0 1-1.283 1.064m-21.847 0h-.25a5.51 5.51 0 0 1-4.383-6.04c.125-2.254 1.69-3.35 2.817-4.132 1.033-.72 1.44-1.096 1.44-1.69.093-2.41-2.035-3.694-2.035-3.694a1.25 1.25 0 0 1-.47-1.784c.376-.626 1.16-.845 1.785-.47.156.095 3.443 2.066 3.35 6.01-.064 2.003-1.44 2.974-2.568 3.756-1.064.75-1.659 1.22-1.69 2.129-.157 2.817 2.128 3.286 2.222 3.317a1.315 1.315 0 0 1-.25 2.598"/>
    </g>
    <path fill="transparent" stroke="transparent" d="M0 0h560v140H0Z"/>
  </g>
</svg>
